<?xml version="1.0" encoding="UTF-8"?>
<svg width="64px" height="64px" viewBox="0 0 64 64" version="1.1" xmlns="http://www.w3.org/2000/svg" xmlns:xlink="http://www.w3.org/1999/xlink">
    <title>GitHub</title>
    <g id="Page-1" stroke="none" stroke-width="1" fill="none" fill-rule="evenodd">
        <g id="GitHub">
            <path d="M58.2106806,0 L5.78931937,0 C2.592,0 0,2.592 0,5.78931937 L0,58.2105131 C0,61.408 2.592,64 5.78931937,64 L58.2105131,64 C61.408,64 64,61.408 64,58.2105131 L64,5.78931937 C64,2.592 61.408,0 58.2106806,0 Z" id="Path" fill-rule="nonzero" transform="translate(32.000000, 32.000000) scale(-1, 1) translate(-32.000000, -32.000000) "></path>
            <g id="Octicons-mark-github" transform="translate(6.000000, 7.000000)" fill="#1B1B1B">
                <path d="M26,0 C11.635,0 0,11.6998844 0,26.144993 C0,37.7141524 7.4425,47.4858435 17.7775,50.9500551 C19.0775,51.1788238 19.565,50.394474 19.565,49.7081679 C19.565,49.0872244 19.5325,47.0283062 19.5325,44.838663 C13,46.0478689 11.31,43.2372822 10.79,41.7666263 C10.4975,41.0149578 9.23,38.6945896 8.125,38.0736461 C7.215,37.5834274 5.915,36.3742215 8.0925,36.3415403 C10.14,36.308859 11.6025,38.2370523 12.09,39.021402 C14.43,42.9758322 18.1675,41.86467 19.6625,41.178364 C19.89,39.4789394 20.5725,38.335096 21.32,37.6814712 C15.535,37.0278463 9.49,34.7728407 9.49,24.7723809 C9.49,21.9291129 10.4975,19.5760635 12.155,17.745914 C11.895,17.0922892 10.985,14.4124274 12.415,10.8174909 C12.415,10.8174909 14.5925,10.1311848 19.565,13.4973526 C21.645,12.9090903 23.855,12.6149591 26.065,12.6149591 C28.275,12.6149591 30.485,12.9090903 32.565,13.4973526 C37.5375,10.0985035 39.715,10.8174909 39.715,10.8174909 C41.145,14.4124274 40.235,17.0922892 39.975,17.745914 C41.6325,19.5760635 42.64,21.8964316 42.64,24.7723809 C42.64,34.8055219 36.5625,37.0278463 30.7775,37.6814712 C31.72,38.4985022 32.5325,40.0672018 32.5325,42.5182949 C32.5325,46.0151877 32.5,48.8257744 32.5,49.7081679 C32.5,50.394474 32.9875,51.211505 34.2875,50.9500551 C44.5575,47.4858435 52,37.6814712 52,26.144993 C52,11.6998844 40.365,0 26,0 Z" id="Path"></path>
            </g>
        </g>
    </g>
</svg>