<?xml version="1.0" encoding="UTF-8"?>
<svg width="64px" height="64px" viewBox="0 0 64 64" version="1.1" xmlns="http://www.w3.org/2000/svg" xmlns:xlink="http://www.w3.org/1999/xlink">
    <title>GitHub2</title>
    <g id="Page-1" stroke="none" stroke-width="1" fill="none" fill-rule="evenodd">
        <g id="GitHub2" fill-rule="nonzero">
            <path d="M58.2106806,0 L5.78931937,0 C2.592,0 0,2.592 0,5.78931937 L0,58.2105131 C0,61.408 2.592,64 5.78931937,64 L58.2105131,64 C61.408,64 64,61.408 64,58.2105131 L64,5.78931937 C64,2.592 61.408,0 58.2106806,0 Z" id="Path" transform="translate(32.000000, 32.000000) scale(-1, 1) translate(-32.000000, -32.000000) "></path>
            <g id="icons8-github" transform="translate(32.500000, 32.500000) scale(-1, 1) translate(-32.500000, -32.500000) translate(6.000000, 6.000000)">
                <path d="M48.6734694,27.0408163 C48.6734694,39.6004802 38.5188475,49.755102 25.9591837,49.755102 C13.3995198,49.755102 3.24489796,39.6004802 3.24489796,27.0408163 C3.24489796,14.4811525 13.3995198,4.32653061 25.9591837,4.32653061 C38.5188475,4.32653061 48.6734694,14.4811525 48.6734694,27.0408163 Z" id="Path"></path>
                <path d="M21.9237346,48.6734694 L21.9237346,41.3338192 C21.9237346,40.9334747 22.1883542,40.6665783 22.5852837,40.6665783 C22.9822131,40.6665783 23.2468327,40.9334747 23.2468327,41.3338192 L23.2468327,48.6734694 L25.8930288,48.6734694 L25.8930288,39.9993374 C25.8930288,39.5989928 26.1576484,39.3320965 26.5545778,39.3320965 C26.9515072,39.3320965 27.2161268,39.5989928 27.2161268,39.9993374 L27.2161268,48.6734694 L29.8623229,48.6734694 L29.8623229,41.3338192 C29.8623229,40.9334747 30.1269425,40.6665783 30.5238719,40.6665783 C30.9208013,40.6665783 31.185421,40.9334747 31.185421,41.3338192 L31.185421,48.6734694 L33.5669974,48.6734694 C33.8316171,48.2731248 33.8316171,47.8727803 33.8316171,47.2055394 L33.8316171,42.0010602 C33.8316171,39.0652001 31.3177308,35.0617546 28.1422955,35.0617546 L24.8345503,35.0617546 C21.7914248,35.0617546 19.1452287,39.1986483 19.1452287,42.0010602 L19.1452287,47.2055394 C19.1452287,47.7393321 19.2775385,48.2731248 19.4098483,48.6734694 L21.9237346,48.6734694 L21.9237346,48.6734694 Z M47.1949073,29.1900345 C47.1949073,29.1900345 47.1949073,29.1900345 47.1949073,29.1900345 C47.1949073,29.1900345 45.4748799,28.6562417 44.019472,28.6562417 C44.019472,28.6562417 43.8871622,28.6562417 43.8871622,28.6562417 C42.4317544,28.6562417 40.0501779,29.0565863 40.0501779,29.0565863 C39.9178681,29.0565863 39.9178681,29.0565863 39.9178681,28.9231381 C39.9178681,28.7896899 39.9178681,28.7896899 40.0501779,28.7896899 C40.1824877,28.7896899 42.696374,28.3893453 44.1517818,28.3893453 C45.6071897,28.3893453 47.3272171,28.9231381 47.4595269,28.9231381 C47.5918367,28.9231381 47.5918367,29.0565863 47.5918367,29.1900345 C47.3272171,29.0565863 47.3272171,29.1900345 47.1949073,29.1900345 Z M46.7979779,30.2576199 C46.7979779,30.2576199 46.7979779,30.2576199 46.7979779,30.2576199 C46.7979779,30.2576199 44.9456406,29.7238272 43.357923,29.7238272 C42.1671347,29.7238272 39.3886288,29.9907236 39.256319,29.9907236 C39.1240092,29.9907236 39.1240092,29.9907236 39.1240092,29.8572754 C39.1240092,29.7238272 39.1240092,29.7238272 39.256319,29.7238272 C39.3886288,29.7238272 42.1671347,29.4569308 43.357923,29.4569308 C45.0779504,29.4569308 46.7979779,29.9907236 46.7979779,29.9907236 C46.9302877,29.9907236 46.9302877,30.1241717 46.9302877,30.2576199 C46.9302877,30.1241717 46.9302877,30.2576199 46.7979779,30.2576199 Z M4.45884042,29.1900345 C4.32653061,29.1900345 4.32653061,29.1900345 4.32653061,29.0565863 C4.32653061,28.9231381 4.32653061,28.9231381 4.45884042,28.7896899 C5.51731885,28.5227935 7.63427573,28.122449 8.82506397,28.122449 C9.88354241,28.122449 13.4559071,28.3893453 13.5882169,28.3893453 C13.7205267,28.3893453 13.7205267,28.5227935 13.7205267,28.5227935 C13.7205267,28.6562417 13.5882169,28.6562417 13.5882169,28.6562417 C13.5882169,28.6562417 10.0158522,28.3893453 8.95737378,28.3893453 C7.50196592,28.6562417 5.51731885,28.9231381 4.45884042,29.1900345 C4.45884042,29.1900345 4.45884042,29.1900345 4.45884042,29.1900345 Z M4.98807964,31.1917572 C4.98807964,31.1917572 4.85576983,31.1917572 4.85576983,31.058309 C4.85576983,30.9248609 4.85576983,30.9248609 4.85576983,30.7914127 C4.98807964,30.7914127 6.7081071,29.7238272 8.69275417,29.4569308 C10.4127816,29.1900345 13.9851464,29.590379 14.249766,29.590379 C14.3820758,29.590379 14.3820758,29.7238272 14.3820758,29.7238272 C14.3820758,29.8572754 14.249766,29.8572754 14.249766,29.8572754 C14.249766,29.8572754 14.249766,29.8572754 14.249766,29.8572754 C14.249766,29.8572754 10.5450914,29.4569308 8.82506397,29.7238272 C6.8404169,30.1241717 4.98807964,31.1917572 4.98807964,31.1917572 C4.98807964,31.1917572 4.98807964,31.1917572 4.98807964,31.1917572 Z" id="Shape" fill="#455A64"></path>
                <path d="M12.9795918,26.0605867 C12.9795918,20.4090561 19.0178324,15.1428571 26.5,15.1428571 C33.9821676,15.1428571 40.0204082,20.2806122 40.0204082,26.0605867 C40.0204082,31.8405612 35.6886269,35.6938776 26.5,35.6938776 C17.3113731,35.6938776 12.9795918,31.7121173 12.9795918,26.0605867 Z" id="Path" fill="#455A64"></path>
                <path d="M32.8962543,16.0466872 C32.8962543,16.0466872 35.1250993,12.9795918 39.1894639,12.9795918 C40.7627663,14.5798155 39.713898,19.3804864 39.1894639,20.7140062 L32.8962543,16.0466872 Z M22.1453546,16.0466872 C22.1453546,16.0466872 19.9165095,12.9795918 15.852145,12.9795918 C14.2788426,14.5798155 15.3277108,19.3804864 15.852145,20.7140062 L22.1453546,16.0466872 Z M21.752029,42.1836735 C21.752029,42.1836735 18.7365327,42.1836735 18.08099,42.1836735 C16.5076876,42.1836735 15.0654938,41.5169136 14.4099511,40.1833939 C13.6232999,38.7165222 12.9677572,37.1162986 11.0011292,35.7827789 C10.6078036,35.5160749 10.8700207,35.249371 11.5255634,35.249371 C12.181106,35.382723 13.3610828,35.5160749 14.2788426,36.7162427 C15.1966023,37.9164104 16.2454706,39.3832821 17.9498815,39.3832821 C19.6542924,39.3832821 21.4898119,39.3832821 22.5386802,38.1831143 L21.752029,42.1836735 Z" id="Shape" fill="#455A64"></path>
                <path d="M26.5,0 C11.925,0 0,11.925 0,26.5 C0,41.075 11.925,53 26.5,53 C41.075,53 53,41.075 53,26.5 C53,11.925 41.075,0 26.5,0 Z M26.5,47.7 C14.84,47.7 5.3,38.16 5.3,26.5 C5.3,14.84 14.84,5.3 26.5,5.3 C38.16,5.3 47.7,14.84 47.7,26.5 C47.7,38.16 38.16,47.7 26.5,47.7 Z" id="Shape" fill="#00BCD4"></path>
            </g>
        </g>
    </g>
</svg>