<?xml version="1.0" encoding="UTF-8"?>
<svg width="64px" height="64px" viewBox="0 0 64 64" version="1.1" xmlns="http://www.w3.org/2000/svg" xmlns:xlink="http://www.w3.org/1999/xlink">
    <title>Safari</title>
    <defs>
        <linearGradient x1="50.0000025%" y1="99.9999944%" x2="50.0000025%" y2="-1.55366353e-06%" id="linearGradient-1">
            <stop stop-color="#BDBDBD" offset="0%"></stop>
            <stop stop-color="#FFFFFF" offset="100%"></stop>
        </linearGradient>
        <radialGradient cx="50.2275914%" cy="42.7100503%" fx="50.2275914%" fy="42.7100503%" r="54.251307%" id="radialGradient-2">
            <stop stop-color="#06C2E7" offset="0%"></stop>
            <stop stop-color="#0DB8EC" offset="25.000015%"></stop>
            <stop stop-color="#12AEF1" offset="50.00003%"></stop>
            <stop stop-color="#1F86F9" offset="75.000012%"></stop>
            <stop stop-color="#107DDD" offset="100%"></stop>
        </radialGradient>
    </defs>
    <g id="Page-1" stroke="none" stroke-width="1" fill="none" fill-rule="evenodd">
        <g id="Safari" fill-rule="nonzero">
            <path d="M58.2106806,0 L5.78931937,0 C2.592,0 0,2.592 0,5.78931937 L0,58.2105131 C0,61.408 2.592,64 5.78931937,64 L58.2105131,64 C61.408,64 64,61.408 64,58.2105131 L64,5.78931937 C64,2.592 61.408,0 58.2106806,0 Z" id="Path" transform="translate(32.000000, 32.000000) scale(-1, 1) translate(-32.000000, -32.000000) "></path>
            <g id="Safari_browser_logo" transform="translate(6.000000, 6.000000)">
                <path d="M52,28 C52,34.3651954 49.4714362,40.4696897 44.9705627,44.9705629 C40.4696893,49.4714362 34.3651949,52 28,52 C21.6348029,52 15.5303091,49.4714352 11.0294363,44.970562 C6.52856347,40.4696888 4,34.3651949 4,28 C4,14.7451662 14.7451652,4 28,4 C34.3651946,4 40.4696889,6.52856358 44.9705623,11.0294366 C49.4714356,15.5303096 52,21.6348035 52,28 Z" id="path2226" fill="#000000" opacity="0.52999998"></path>
                <path d="M52,26 C52,32.8956289 49.2607223,39.5088309 44.3847756,44.3847768 C39.5088289,49.2607227 32.8956258,52 26,52 C11.6405929,52 0,40.3594006 0,26 C0,11.6405994 11.6405929,0 26,0 C32.8956258,0 39.5088289,2.73927727 44.3847756,7.6152232 C49.2607223,12.4911691 52,19.1043711 52,26 L52,26 Z" id="path826" stroke="#CDCDCD" stroke-width="0.09301235" fill="url(#linearGradient-1)" stroke-linecap="round" stroke-linejoin="round"></path>
                <path d="M52,24 C52,37.2548338 41.2548338,48 28,48 C14.7451662,48 4,37.2548338 4,24 C4,10.7451662 14.7451662,0 28,0 C41.2548338,0 52,10.7451662 52,24 L52,24 Z" id="circle828" fill="url(#radialGradient-2)"></path>
                <path d="M25.999996,4 C25.8123422,4 25.6612713,4.1509159 25.6612713,4.33839506 L25.6612713,8.24166774 C25.6612713,8.4291469 25.8123422,8.5800628 25.999996,8.5800628 C26.1876578,8.5800628 26.3387207,8.4291469 26.3387207,8.24166774 L26.3387207,4.33839506 C26.3387207,4.1509159 26.1876578,4 25.999996,4 Z M23.78405,4.13991798 C23.7615981,4.13750616 23.7385025,4.13750616 23.7151655,4.14019936 C23.5285177,4.15965474 23.3939436,4.32542748 23.413434,4.51189368 L23.5841805,6.14485162 C23.6036548,6.33131782 23.7695971,6.46576899 23.9562288,6.44629753 C24.1428847,6.42684215 24.2774669,6.26106941 24.2579684,6.07460321 L24.0873668,4.44165331 C24.0703066,4.27849338 23.941092,4.15515267 23.7840258,4.13991798 L23.78405,4.13991798 Z M28.231441,4.14152586 C28.0743668,4.15663996 27.9451361,4.27997263 27.9279472,4.44310844 L27.7560338,6.07592972 C27.7363986,6.26237983 27.8709887,6.42830532 28.0576285,6.44791345 C28.2442522,6.46752962 28.4101864,6.33320708 28.4298217,6.14675696 L28.6017431,4.51379902 C28.6213784,4.3273489 28.4867801,4.16156009 28.3001484,4.14195999 C28.2768114,4.13954817 28.2538767,4.13954817 28.2314249,4.14154194 L28.231441,4.14152586 Z M21.5077254,4.46969479 C21.4851932,4.46987165 21.4622585,4.47210661 21.4393239,4.47693026 C21.255734,4.51576063 21.1392099,4.69470997 21.1780781,4.87812119 L21.9872447,8.69669059 C22.0261129,8.88010181 22.2052286,8.9965045 22.3888184,8.95768216 C22.5724083,8.91885179 22.6889324,8.74003912 22.6500723,8.5566279 L21.8409056,4.73792183 C21.8068657,4.57743099 21.66554,4.46825573 21.5077415,4.46947547 L21.5077254,4.46969479 Z M30.5076207,4.47289304 C30.3498222,4.47130267 30.208424,4.58059048 30.1743118,4.74104916 L29.3623688,8.55916836 C29.3233396,8.74255546 29.4397833,8.92155303 29.6233168,8.96051204 C29.8068826,8.9995032 29.9860545,8.88317286 30.0250434,8.69980989 L30.8369864,4.88168265 C30.8760155,4.69830359 30.7595719,4.51929798 30.5760383,4.48034701 C30.5531037,4.47552336 30.530169,4.47311154 30.5076367,4.47311154 L30.5076207,4.47289304 Z M19.3353311,5.08163094 C19.2914736,5.07761123 19.2461918,5.08243488 19.2015698,5.09722741 C19.023098,5.15519159 18.9260482,5.34524336 18.9840447,5.52354151 L19.4919064,7.08508533 C19.549927,7.26339152 19.7403088,7.36033882 19.9187806,7.3024068 C20.0972605,7.24444262 20.1941574,7.05424614 20.1361609,6.87594799 L19.6283072,5.31440417 C19.5848521,5.18067654 19.4668875,5.09277357 19.3353311,5.08159878 L19.3353311,5.08163094 Z M32.6677268,5.08243488 C32.5361705,5.09360967 32.4182702,5.18151263 32.3747588,5.31523222 L31.8665993,6.87663134 C31.8085787,7.05492145 31.905548,7.24513401 32.0839876,7.30309015 C32.2624595,7.36105433 32.4528493,7.26417938 32.5108699,7.08592143 L33.0190213,5.52437761 C33.077042,5.34607946 32.9800726,5.15587494 32.801633,5.0979188 C32.7570513,5.08344785 32.7115763,5.07870459 32.6677268,5.08240273 L32.6677268,5.08243488 Z M17.1870705,5.8670014 C17.1430521,5.86780534 17.0985186,5.87745264 17.0556509,5.89650605 C16.8842607,5.97263931 16.807506,6.17180778 16.8837295,6.34311968 L18.4706223,9.90990264 C18.5468298,10.0812065 18.7461922,10.157806 18.917671,10.0816567 C19.0890613,10.0055234 19.1659607,9.80635497 19.0897372,9.63504308 L17.5026915,6.06826012 C17.4455561,5.93976614 17.3190775,5.8644529 17.1870705,5.86700944 L17.1870705,5.8670014 Z M34.840258,5.87898013 C34.708259,5.8765683 34.5816838,5.95141526 34.5243472,6.07979668 L32.932618,9.64439292 C32.8561692,9.8156003 32.9325858,10.0149135 33.10396,10.091296 C33.2753422,10.1676704 33.4748415,10.0913362 33.5513064,9.92012878 L35.1430195,6.35554057 C35.2194683,6.18432515 35.1430597,5.98501197 34.9716856,5.90862949 C34.9288742,5.88957608 34.8842603,5.87992878 34.840258,5.87892357 L34.840258,5.87898013 Z M15.1930353,6.92103303 C15.1280136,6.91620938 15.0610122,6.93068033 15.0000704,6.96589296 C14.8375482,7.05963254 14.7822717,7.26577922 14.8760945,7.42813521 L15.6978391,8.85005851 C15.79167,9.01242254 15.9980014,9.06764528 16.1605235,8.9739057 C16.3230377,8.88016612 16.3783223,8.67402748 16.2844994,8.51166346 L15.4627549,7.08974819 C15.4040905,6.98826666 15.3014317,6.92863028 15.1930353,6.92105715 L15.1930353,6.92103303 Z M36.8069486,6.92103303 C36.6985683,6.9282685 36.5960222,6.98824254 36.5373819,7.08972407 L35.7154925,8.51163934 C35.6216617,8.67400336 35.6771072,8.88014201 35.8396133,8.97388158 C36.0021354,9.06762116 36.2084749,9.01239038 36.3023058,8.8500344 L37.1240423,7.42811109 C37.2178732,7.26575511 37.1625886,7.05960843 37.0000664,6.96586885 C36.9391487,6.9307366 36.8719864,6.91650684 36.8069486,6.92100891 L36.8069486,6.92103303 Z M13.2567553,8.12753216 C13.1915726,8.12994399 13.1263013,8.15084647 13.0693349,8.19208867 C12.9174431,8.30217238 12.883862,8.51294976 12.9940931,8.66470176 L15.2882503,11.8241517 C15.3984413,11.9759037 15.6095688,12.0094522 15.7614687,11.8994006 C15.9133685,11.7893169 15.9469496,11.5785395 15.8367104,11.4267875 L13.5424083,8.26733759 C13.4735239,8.17248857 13.3653367,8.12385815 13.2567553,8.12756432 L13.2567553,8.12753216 Z M38.7675072,8.14473651 C38.6589257,8.14071681 38.5507063,8.18935527 38.4817012,8.28406762 L36.1831663,11.4404545 C36.0727581,11.5920538 36.1060737,11.8029196 36.2578447,11.9132123 C36.4095997,12.023497 36.6206709,11.9903103 36.7310711,11.8387673 L39.0294692,8.68238043 C39.1398613,8.53077315 39.1064813,8.31991537 38.9547908,8.20962263 C38.8978967,8.16830004 38.8326657,8.14707598 38.7675152,8.14474455 L38.7675072,8.14473651 Z M11.5260018,9.5776095 C11.4395422,9.57278585 11.3513122,9.60164735 11.2815748,9.66436283 C11.1420999,9.78979378 11.1308901,10.0028946 11.2564674,10.1422337 L12.3561075,11.3626089 C12.4816526,11.501948 12.694969,11.5131549 12.8344438,11.3876918 C12.9739187,11.2622609 12.9851366,11.0490154 12.8595512,10.9096763 L11.760056,9.6894458 C11.6972875,9.61974407 11.6124775,9.58211157 11.5260018,9.5775693 L11.5260018,9.5776095 Z M40.4764687,9.58002132 C40.390001,9.58484497 40.3052072,9.62222825 40.2424226,9.69188978 L39.1427825,10.9119755 C39.0171971,11.0512986 39.0283184,11.2645441 39.1678094,11.3899911 C39.3072601,11.5154381 39.5205765,11.504191 39.6461458,11.3649081 L40.7459307,10.1448304 C40.871508,10.0054993 40.8602418,9.79225384 40.7208233,9.66681485 C40.6510537,9.60410741 40.5630087,9.57553533 40.476533,9.58006152 L40.4764687,9.58002132 Z M9.86719081,11.1694539 C9.78072315,11.1742775 9.69605807,11.2116608 9.63328151,11.2813304 C9.50772837,11.4206695 9.51895428,11.6337703 9.65838892,11.7592012 L12.5621653,14.3706766 C12.7016401,14.4961156 12.9149485,14.4848926 13.0404936,14.3455936 C13.1660547,14.2062625 13.1549737,13.9931537 13.0154666,13.8677228 L10.1115535,11.2562474 C10.0417839,11.19354 9.95358604,11.1649518 9.86711034,11.1694941 L9.86719081,11.1694539 Z M42.143335,11.1808698 C42.0568673,11.1760462 41.9685327,11.2048273 41.898755,11.2674785 L38.9932244,13.8769198 C38.8536691,14.0022463 38.8421937,14.2153551 38.9676342,14.3547827 C39.0930907,14.4942022 39.30656,14.5055297 39.4461154,14.3801872 L42.3517909,11.7707539 C42.4913462,11.6454194 42.5026767,11.4323106 42.3772201,11.292883 C42.3144516,11.2231813 42.2297785,11.1854684 42.1433189,11.1808698 L42.143335,11.1808698 Z M8.48773993,12.9414857 C8.37915039,12.937466 8.27087469,12.9863456 8.20194198,13.0811062 C8.09163838,13.2327778 8.12509078,13.443523 8.27694232,13.5537193 L9.60654051,14.5188028 C9.75835985,14.6290071 9.96930232,14.59574 10.0796059,14.4440363 C10.1899176,14.2923647 10.1565376,14.0814747 10.0047665,13.9712785 L8.67516834,13.0061949 C8.61827431,12.9648723 8.55290653,12.9438091 8.48775602,12.9414776 L8.48773993,12.9414857 Z M43.5214661,12.953786 C43.4562834,12.9561978 43.3910122,12.9770199 43.3340538,13.0183425 L42.0038682,13.9825578 C41.8519764,14.0926495 41.8183791,14.3035636 41.9285459,14.4553156 C42.038753,14.6070595 42.2497276,14.6404713 42.4016194,14.5304037 L43.7319579,13.5661965 C43.8838497,13.4561047 43.9172941,13.2453273 43.8071192,13.0935834 C43.7382348,12.9987424 43.6300476,12.9501039 43.5214661,12.9538181 L43.5214661,12.953786 Z M7.19863548,14.8316727 C7.09024712,14.8389082 6.98770911,14.8988822 6.92906078,15.0003557 C6.83522989,15.1627117 6.89051447,15.3688584 7.05302861,15.462598 L10.4365979,17.4142303 C10.599112,17.5079699 10.8054595,17.4527391 10.8992904,17.2903831 C10.9931213,17.1280271 10.9378367,16.9218805 10.7753225,16.8281409 L7.39175329,14.8765005 C7.33083564,14.8413683 7.26366528,14.8271385 7.19863548,14.8316406 L7.19863548,14.8316727 Z M44.8013565,14.8316727 C44.7363347,14.8268491 44.6691805,14.84132 44.6082387,14.8765327 L41.2246694,16.828173 C41.0621553,16.9219126 41.0068707,17.1280593 41.1007016,17.2904153 C41.1945325,17.4527713 41.40088,17.5080021 41.5633941,17.4142625 L44.9471162,15.4626301 C45.1096304,15.3688906 45.1649069,15.1627439 45.071076,15.0003879 C45.0124116,14.8989144 44.9097448,14.83927 44.8013565,14.8317049 L44.8013565,14.8316727 Z M6.22398522,16.8463984 C6.09198624,16.8431826 5.96540306,16.9186727 5.90806643,17.0470622 C5.83161759,17.2182856 5.90801815,17.4176069 6.0794084,17.4939733 L7.58047731,18.1628687 C7.75186756,18.2392431 7.95138293,18.162925 8.02782372,17.9917095 C8.10427256,17.8204861 8.02772715,17.6211649 7.85634495,17.5447985 L6.35541284,16.875903 C6.31260149,16.8567692 6.26797951,16.8472827 6.22398522,16.8463984 L6.22398522,16.8463984 Z M45.7825894,16.8603066 C45.7385709,16.8611105 45.6938765,16.8707578 45.6510089,16.8898112 L44.1496422,17.5575409 C43.9782037,17.633835 43.9015456,17.8330276 43.9778657,18.0042993 C44.054234,18.175571 44.2537736,18.2521544 44.4252121,18.1759086 L45.9265868,17.5080262 C46.0980173,17.4318125 46.1745305,17.2325395 46.0982104,17.0612678 C46.0409945,16.9328141 45.9145884,16.8576857 45.7825894,16.8603066 L45.7825894,16.8603066 Z M5.35532524,18.9521543 C5.22376081,18.9631683 5.10581232,19.0509668 5.06221235,19.1846623 C5.00411123,19.3629122 5.10083913,19.553181 5.2793029,19.6112658 L8.99414508,20.8205385 C9.17256057,20.8785831 9.36302279,20.7818689 9.42116415,20.6036592 C9.47926526,20.4254093 9.38253737,20.2351324 9.20407359,20.1770557 L5.48923946,18.9677749 C5.44465772,18.9532236 5.39917468,18.9484803 5.35532524,18.9521785 L5.35532524,18.9521543 Z M46.6496399,18.9666253 C46.6057824,18.9626056 46.5604925,18.9674292 46.5158705,18.9822217 L42.8001673,20.1888736 C42.6216955,20.2468378 42.5247664,20.4370423 42.582779,20.6153324 C42.6407996,20.7936226 42.8311814,20.8904653 43.0096532,20.8325092 L46.7252196,19.6258573 C46.9036915,19.5678931 47.0007574,19.3776886 46.9427528,19.1993985 C46.8992172,19.0656789 46.7811882,18.9777518 46.6496399,18.9666012 L46.6496399,18.9666253 Z M4.81413184,21.1626076 C4.65632535,21.1609997 4.51480648,21.2704322 4.48067006,21.4308909 C4.44164091,21.61427 4.55808457,21.7932515 4.74161811,21.8322346 L6.34927279,22.1735479 C6.53283048,22.2125391 6.71197827,22.0962088 6.75099937,21.9128538 C6.79002851,21.7294667 6.67358486,21.5504852 6.49005132,21.5115102 L4.88254148,21.1701968 C4.85960683,21.1653731 4.83667218,21.1629613 4.81413989,21.1629613 L4.81413184,21.1626076 Z M47.1866005,21.1658234 C47.1640682,21.1660083 47.1412945,21.1690391 47.1183598,21.1730588 L45.5106971,21.5142275 C45.3271394,21.5532186 45.2107682,21.7320394 45.2497571,21.9154264 C45.2887862,22.0988055 45.4679179,22.2152162 45.6514836,22.1762653 L47.2589935,21.8350966 C47.4425512,21.7961055 47.5590753,21.61714 47.5200864,21.4337529 C47.4859661,21.2732943 47.344423,21.1641351 47.1866326,21.1654696 L47.1866005,21.1658234 Z M4.40450287,23.3860445 C4.24742063,23.4010782 4.11812553,23.5242018 4.10087223,23.6873376 C4.08115648,23.8737717 4.21540064,24.0397695 4.40201627,24.0594661 L8.28746007,24.4698622 C8.47407571,24.4895587 8.64023524,24.3553005 8.659951,24.1688584 C8.67966675,23.9824244 8.54527774,23.8164265 8.35865405,23.79673 L4.47321831,23.3863339 C4.44988129,23.3839221 4.42694664,23.3839221 4.40449483,23.3860525 L4.40450287,23.3860445 Z M47.5991425,23.4152276 C47.5766907,23.4128157 47.5535951,23.4128157 47.5302581,23.4155089 L43.6443798,23.8206472 C43.4577319,23.8401026 43.323182,24.0058754 43.3426402,24.1923335 C43.3621146,24.3787997 43.5280488,24.5132509 43.7146966,24.4937794 L47.6005749,24.0886411 C47.7872147,24.0691857 47.9217727,23.903413 47.9023145,23.7169468 C47.8852543,23.5537949 47.7561765,23.4304703 47.5991103,23.4152115 L47.5991425,23.4152276 Z M4.33871664,25.662027 C4.15105486,25.662027 4,25.8129429 4,26.0004221 C4,26.1878932 4.15105486,26.3388091 4.33871664,26.3388091 L5.98218962,26.3388091 C6.16984335,26.3388091 6.32105915,26.1878932 6.32105915,26.0004221 C6.32105915,25.8129429 6.16984335,25.662027 5.98218962,25.662027 L4.33871664,25.662027 Z M46.0178023,25.662027 C45.8301486,25.662027 45.6790777,25.8129429 45.6790777,26.0004221 C45.6790777,26.1878932 45.8301486,26.3388091 46.0178023,26.3388091 L47.6612753,26.3388091 C47.848929,26.3388091 48,26.1878932 48,26.0004221 C48,25.8129429 47.848929,25.662027 47.6612753,25.662027 L46.0178023,25.662027 Z M8.35412345,27.5067592 C8.33167164,27.5043474 8.30873699,27.5043474 8.28539997,27.5070406 L4.39936873,27.9121789 C4.2127209,27.9316343 4.078179,28.097407 4.09763724,28.2838652 C4.11711157,28.4703314 4.28304579,28.6047825 4.46968557,28.5853111 L8.35571681,28.1801728 C8.54236464,28.1607174 8.67690654,27.9949447 8.6574483,27.8084785 C8.64038814,27.6453266 8.51117351,27.522002 8.35410736,27.5067512 L8.35412345,27.5067592 Z M43.6438245,27.5307167 C43.4867342,27.5457504 43.3574391,27.6688821 43.3401858,27.8320179 C43.3204701,28.0184519 43.4547223,28.1844498 43.6413379,28.2041463 L47.5267817,28.6145424 C47.7134054,28.634239 47.8795488,28.4999727 47.8992726,28.3135386 C47.9189884,28.1271046 47.7845913,27.9611068 47.5979757,27.9414102 L43.7126848,27.5310141 C43.6893478,27.5286023 43.6662522,27.5286023 43.6438004,27.5307328 L43.6438245,27.5307167 Z M6.41710303,29.8168048 C6.39457074,29.8169977 6.37163609,29.8192166 6.34870144,29.8240402 L4.74104675,30.1652008 C4.55748102,30.204192 4.44111784,30.3831574 4.4800987,30.5665445 C4.51912785,30.7499316 4.69826759,30.8661896 4.88183332,30.8272386 L6.48948801,30.4862147 C6.67304569,30.4472235 6.78941692,30.2682581 6.75042801,30.084879 C6.71630769,29.9244123 6.57491758,29.8152612 6.41711913,29.8165877 L6.41710303,29.8168048 Z M45.5824463,29.8200205 C45.4246479,29.8184126 45.2832739,29.9277004 45.2491374,30.0881591 C45.2101083,30.2715382 45.326391,30.4505277 45.5099406,30.4895028 L47.1175953,30.8308162 C47.301145,30.8698073 47.4803088,30.7536378 47.5193219,30.5702668 C47.558351,30.3868877 47.4419074,30.2077535 47.2583819,30.1687784 L45.650864,29.827465 C45.6279294,29.8226414 45.6049947,29.8202295 45.5824624,29.8202295 L45.5824463,29.8200205 Z M9.12424491,31.152851 C9.08038742,31.1488313 9.03510556,31.153655 8.99048358,31.1684475 L5.27478035,32.3750913 C5.09630853,32.4330555 4.99937945,32.62326 5.05739204,32.8015501 C5.11541269,32.9798483 5.30579444,33.076675 5.48426626,33.0187269 L9.19983269,31.812075 C9.37830451,31.7541108 9.47537844,31.5639063 9.41736585,31.3856162 C9.37383025,31.2518966 9.25580129,31.1639695 9.12424491,31.1528189 L9.12424491,31.152851 Z M42.8720855,31.1648298 C42.7405211,31.1758438 42.6225807,31.2636502 42.5789807,31.3973377 C42.5208796,31.5755956 42.6176075,31.7658645 42.7960713,31.8239492 L46.5109054,33.033222 C46.6893289,33.0912665 46.8797912,32.9945524 46.9379245,32.8163427 C46.996106,32.6380928 46.8992977,32.4478159 46.7208339,32.3897311 L43.0059998,31.1804584 C42.961418,31.165907 42.915943,31.1611638 42.8720855,31.1648619 L42.8720855,31.1648298 Z M7.70635233,33.7957364 C7.6623339,33.7965403 7.61778434,33.8060268 7.57492471,33.8250802 L6.0734132,34.4929546 C5.90197467,34.5691683 5.82546145,34.7684413 5.90178153,34.939713 C5.9781499,35.1109847 6.17754456,35.1874234 6.34897505,35.1111776 L7.85050265,34.4434399 C8.02193314,34.3672262 8.09844635,34.1679532 8.02212627,33.9966815 C7.96491035,33.8682278 7.83835131,33.7930994 7.70635233,33.7957203 L7.70635233,33.7957364 Z M44.2882319,33.8085994 C44.1562329,33.8053837 44.0296497,33.8808738 43.9723131,34.0092713 C43.8958642,34.1804867 43.9722648,34.3798079 44.143647,34.4561743 L45.6445791,35.1250697 C45.8159613,35.2014442 46.0154847,35.125118 46.0919255,34.9539025 C46.1683744,34.7826871 46.0919738,34.5833659 45.9205916,34.5069995 L44.4196595,33.838096 C44.3768481,33.8189622 44.3322342,33.8094757 44.2882319,33.8085914 L44.2882319,33.8085994 Z M10.6297157,34.5419066 C10.5646939,34.537083 10.4975477,34.5515539 10.4365979,34.5867666 L7.05302861,36.5383989 C6.89051447,36.6321385 6.83522989,36.8382852 6.92906078,37.0006411 C7.02289167,37.1629971 7.22923916,37.2182279 7.39175329,37.1244883 L10.7753225,35.1730007 C10.9378367,35.0792611 10.9931132,34.8729698 10.8992904,34.7106138 C10.8406259,34.6091403 10.738104,34.5494958 10.6297157,34.5419308 L10.6297157,34.5419066 Z M41.3704211,34.5419066 C41.2620328,34.5491421 41.1593499,34.6091161 41.1007016,34.7105896 C41.0068707,34.8729456 41.0621553,35.079237 41.2246694,35.1729766 L44.6082387,37.1244642 C44.7707608,37.2182038 44.9772451,37.162973 45.071076,37.000617 C45.1649069,36.838261 45.1096223,36.6321144 44.9471162,36.5383748 L41.5633941,34.5867425 C41.5024764,34.5516102 41.4354509,34.5373804 41.3704211,34.5418825 L41.3704211,34.5419066 Z M9.78576073,37.4059 C9.72057803,37.4083118 9.65530682,37.4292947 9.59834037,37.4706173 L8.26816277,38.4348246 C8.116271,38.5449163 8.08267375,38.7556937 8.19284055,38.9074376 C8.30304758,39.0591816 8.51402223,39.0927462 8.66591401,38.9826062 L9.99623645,38.0183989 C10.1481443,37.9083152 10.1817335,37.6975378 10.0715587,37.5457939 C10.0026742,37.4509529 9.89434222,37.4021617 9.78575268,37.4058759 L9.78576073,37.4059 Z M42.206192,37.417316 C42.0976025,37.4132963 41.9893348,37.4621759 41.9203941,37.5569365 C41.8100824,37.7086001 41.8435429,37.919498 41.9953944,38.0296943 L43.3249926,38.9947779 C43.476812,39.1049741 43.6877625,39.0715543 43.7980661,38.9198505 C43.9083697,38.7681789 43.8749977,38.5574337 43.7232267,38.4472374 L42.3936285,37.4821539 C42.3367345,37.4408313 42.2713667,37.4196072 42.2062162,37.4172758 L42.206192,37.417316 Z M12.7984404,37.5341528 C12.7119889,37.5293292 12.6237991,37.5581103 12.5540134,37.6207614 L9.64834595,40.2301948 C9.50879061,40.3555212 9.49745204,40.5686381 9.62291665,40.7080656 C9.74836517,40.8474852 9.96168157,40.8588047 10.101245,40.7334702 L13.0069204,38.1240368 C13.1464758,37.9987104 13.1578144,37.7855936 13.0323497,37.646166 C12.9696617,37.5764642 12.8849081,37.5387514 12.7984404,37.5341528 Z M39.1935043,37.5434785 C39.1070366,37.5483022 39.0222347,37.5856855 38.9594582,37.655347 C38.833897,37.7946861 38.8451309,38.0077869 38.9845656,38.1332179 L41.8883419,40.7446932 C42.0278168,40.8701402 42.24127,40.8589172 42.3668231,40.7196102 C42.4923843,40.5802791 42.4811503,40.3671703 42.3417157,40.2417474 L39.4377865,37.630264 C39.3680168,37.5675566 39.2799719,37.5389765 39.1935043,37.5435107 L39.1935043,37.5434785 Z M15.5550085,40.0224965 C15.446427,40.0184768 15.3380548,40.0670348 15.2690577,40.1618195 L12.9706596,43.3182064 C12.8602594,43.4698137 12.8934865,43.6806795 13.0451771,43.7909642 C13.196924,43.901257 13.4080032,43.8680622 13.5183954,43.7164389 L15.8167935,40.560052 C15.9271856,40.4084527 15.8939666,40.1975869 15.742276,40.0872942 C15.6853819,40.0459716 15.620159,40.0247475 15.5550085,40.0224965 Z M36.4261287,40.0366458 C36.3609461,40.0390577 36.2956748,40.0598798 36.2387084,40.1012023 C36.0868166,40.2112941 36.0532355,40.4220634 36.1633862,40.5738154 L38.4575434,43.7332654 C38.5677343,43.8850174 38.778717,43.9185739 38.9306168,43.8085143 C39.0825166,43.6984306 39.1160978,43.4876612 39.0059391,43.3359092 L36.7117818,40.1764513 C36.6428974,40.0816103 36.5347102,40.0329799 36.4261207,40.036686 L36.4261287,40.0366458 Z M12.5879325,40.524156 C12.5014649,40.5289796 12.416671,40.5663629 12.3538864,40.6360244 L11.2542383,41.8561102 C11.128661,41.9954332 11.1397823,42.2086787 11.2792652,42.3341258 C11.418724,42.4595728 11.6320324,42.4483257 11.7575935,42.3089624 L12.8573785,41.0888847 C12.9829638,40.9495616 12.9716977,40.7363081 12.8322711,40.6108691 C12.7625014,40.5481617 12.6744565,40.5195896 12.5879808,40.5241158 L12.5879325,40.524156 Z M39.4100154,40.5257639 C39.3235478,40.5209402 39.2354626,40.5498017 39.1657332,40.6125172 C39.0262503,40.7379321 39.0150405,40.9510409 39.1405453,41.09038 L40.2400406,42.3107552 C40.3655937,42.4501024 40.5789021,42.4613013 40.718385,42.3358382 C40.8578598,42.2104152 40.8690777,41.9971698 40.7434924,41.8578226 L39.6439891,40.6376002 C39.5812206,40.5678984 39.4964107,40.5302659 39.409943,40.5257237 L39.4100154,40.5257639 Z M18.7646124,41.879328 C18.6326134,41.8761122 18.5061831,41.9516024 18.4488465,42.0799999 L16.8569725,45.6445881 C16.7805236,45.8158035 16.8569322,46.0151167 17.0283144,46.0914991 C17.1996886,46.1678736 17.3992039,46.0915393 17.4756528,45.920332 L19.0675188,42.3557357 C19.1439676,42.1845283 19.067559,41.9852071 18.8961768,41.9088327 C18.8533655,41.8896989 18.8086147,41.8802124 18.7646124,41.879328 Z M33.2138934,41.8891361 C33.169875,41.88994 33.1251886,41.8994266 33.082321,41.91848 C32.9109387,41.9946132 32.8341761,42.1937817 32.9104076,42.3650936 L34.4972924,45.9318766 C34.5734998,46.103092 34.7730071,46.17978 34.9444859,46.1036306 C35.1158761,46.0274974 35.1926308,45.8283289 35.1164073,45.657017 L33.5295145,42.090234 C33.472379,41.9618205 33.3458924,41.8866037 33.2138934,41.8891281 L33.2138934,41.8891361 Z M15.9674057,42.9814273 C15.8590254,42.9886628 15.7564713,43.0486368 15.6978391,43.1501103 L14.8760945,44.5720336 C14.7822717,44.7343896 14.8375482,44.9405363 15.0000704,45.0342759 C15.1625845,45.1280154 15.368932,45.0727847 15.4627549,44.9104287 L16.2844994,43.4885054 C16.3783223,43.3261494 16.3230457,43.1200027 16.1605235,43.0262631 C16.0996059,42.9911309 16.0324436,42.9769011 15.9674057,42.9814032 L15.9674057,42.9814273 Z M36.0325782,42.9814273 C35.9675564,42.9766037 35.9005551,42.991155 35.8396133,43.0262872 C35.6770991,43.1200268 35.6218145,43.3261735 35.7156454,43.4885295 L36.5373819,44.9104528 C36.6312128,45.0728088 36.8375603,45.1280315 37.0000664,45.0343 C37.1625886,44.9405604 37.2178732,44.7344137 37.1240423,44.5720577 L36.3023058,43.1501344 C36.2436413,43.0486609 36.1409665,42.9890165 36.0325782,42.9814514 L36.0325782,42.9814273 Z M22.3084023,43.0323797 C22.1506038,43.0307893 22.0092057,43.1400771 21.9750934,43.3005438 L21.1631504,47.1186711 C21.1241213,47.3020501 21.2405649,47.4810558 21.4240985,47.5200067 C21.6076642,47.5589979 21.7868361,47.4426676 21.8258331,47.2593126 L22.637768,43.4411854 C22.6767972,43.2578063 22.5603535,43.0788007 22.37682,43.0398497 C22.3538853,43.0350261 22.3309507,43.0326143 22.3084184,43.0326143 L22.3084023,43.0323797 Z M29.6795993,43.034809 C29.657067,43.0349859 29.6342933,43.0372208 29.6113586,43.0420445 C29.4277687,43.0808749 29.3112446,43.2596795 29.3501048,43.4430907 L30.1592795,47.2618048 C30.1981477,47.445216 30.3772633,47.5616187 30.5608612,47.5227964 C30.7444511,47.483966 30.8609672,47.3050167 30.822107,47.1216055 L30.0127955,43.3031647 C29.9787556,43.1426739 29.8374219,43.0334986 29.6796234,43.0347104 L29.6795993,43.034809 Z M25.999996,43.4199372 C25.8123422,43.4199372 25.6612713,43.5708531 25.6612713,43.7583323 L25.6612713,47.6616049 C25.6612713,47.8490841 25.8123422,48 25.999996,48 C26.1876578,48 26.3387207,47.8490841 26.3387207,47.6616049 L26.3387207,43.7583323 C26.3387207,43.5708531 26.1876578,43.4199372 25.999996,43.4199372 Z M19.7822349,44.6812089 C19.6506866,44.6923837 19.5326335,44.7802866 19.4891301,44.9140062 L18.9811155,46.47555 C18.9230948,46.6538482 19.0200642,46.8440527 19.1985038,46.9020169 C19.3769676,46.9599811 19.5673574,46.8629453 19.625378,46.6846954 L20.1333846,45.1232963 C20.1914052,44.9450062 20.0944359,44.7548017 19.9160043,44.6968375 C19.8714226,44.6823665 19.8260924,44.6775429 19.7822349,44.681241 L19.7822349,44.6812089 Z M32.2151256,44.6820128 C32.1712681,44.6779931 32.1259782,44.6828168 32.0813642,44.6975289 C31.9028924,44.7554931 31.8058426,44.9456895 31.863823,45.1239957 L32.3716928,46.6855315 C32.4297134,46.8638377 32.6200952,46.9606403 32.798567,46.9027083 C32.9770388,46.8447441 33.0740886,46.6546923 33.0161002,46.4763942 L32.5080936,44.9148504 C32.464558,44.7811227 32.3466819,44.6932198 32.2151256,44.682053 L32.2151256,44.6820128 Z M23.8738089,45.5517248 C23.7167267,45.5668389 23.587327,45.6900268 23.5701702,45.8531707 L23.3983937,47.4861286 C23.3787585,47.6725787 23.5132118,47.8383515 23.6998436,47.8579677 C23.8864753,47.8775838 24.0525544,47.7432613 24.0721897,47.5568112 L24.2439581,45.9239979 C24.2635934,45.7375478 24.12914,45.5716304 23.9425244,45.5520142 C23.9191874,45.5496024 23.8962527,45.5496024 23.8738009,45.5517328 L23.8738089,45.5517248 Z M28.1125832,45.5533327 C28.0901314,45.5509208 28.0670358,45.5509208 28.0436987,45.553614 C27.857059,45.5730694 27.7224768,45.7388422 27.7419672,45.9253003 L27.9127137,47.558411 C27.9321881,47.7448692 28.0981223,47.8791837 28.2847701,47.8597122 C28.4714099,47.8402568 28.6060001,47.674476 28.5865096,47.4880179 L28.415908,45.8550599 C28.3988479,45.6919 28.2696252,45.5685593 28.112551,45.5533166 L28.1125832,45.5533327 Z" id="rect830" fill="#F4F2F3"></path>
                <polygon id="path2150" fill="#000000" opacity="0.40900005" points="44 12 24.3954125 22.3199151 12 40 30.1334911 27.8309308"></polygon>
                <g id="g2847" transform="translate(8.000000, 8.000000)">
                    <polygon id="path2096" fill="#FF5150" transform="translate(21.767391, 13.195237) rotate(29.135544) translate(-21.767391, -13.195237) " points="25.679565 22.4684047 12.1167095 9.45827324 31.4180734 3.92207008"></polygon>
                    <polygon id="path2099" fill="#F1F1F1" transform="translate(13.923739, 19.768038) scale(-1, 1) rotate(60.864456) translate(-13.923739, -19.768038) " points="17.660706 29.4187229 4.6505746 15.8558674 23.1969035 10.1173531"></polygon>
                    <polygon id="path2112" fill="#000000" opacity="0.243" points="0.725906383 31.6242302 20.6544766 19.2063956 34.9652255 1.33904137"></polygon>
                </g>
            </g>
        </g>
    </g>
</svg>