<?xml version="1.0" encoding="UTF-8"?>
<svg width="58px" height="50px" viewBox="0 0 58 50" version="1.1" xmlns="http://www.w3.org/2000/svg" xmlns:xlink="http://www.w3.org/1999/xlink">
    <title>heart copy</title>
    <g id="Page-1" stroke="none" stroke-width="1" fill="none" fill-rule="evenodd">
        <g id="umang-copy" transform="translate(-1007.000000, -930.000000)" fill-rule="nonzero">
            <g id="Group-2-Copy-14" transform="translate(969.000000, 930.000000)">
                <g id="heart-copy" transform="translate(38.000000, 0.000000)">
                    <path d="M52.1423496,4.98182742 C43.6798742,-3.47823815 35.2888655,0.218614376 28.5720156,6.25329652 C21.8516945,0.218614376 13.5305189,-3.54436271 5.00004808,4.98182742 C-1.65064409,11.6255086 -1.68270202,22.3019713 5.00004808,28.909937 C28.4989154,50.0375492 28.4934022,50 28.4934022,50 C28.4934022,50 28.5272979,50.0695911 52.1405119,28.909733 C58.8269375,22.3017672 58.7930418,11.6255086 52.1423496,4.98182742 Z" id="Shape" fill="#E2574C"></path>
                    <path d="M28.5875505,6.14445263 L28.5714286,6.1321615 L28.5714286,49.2857143 C28.9481511,48.9717867 31.7180613,46.5967777 52.1443383,28.5128987 C58.8251423,21.9907416 58.7928984,11.4499894 52.1443383,4.89075738 C43.6866531,-3.46156916 35.3022309,0.188291956 28.5875505,6.14445263 Z" id="Shape" fill="#CB4E44"></path>
                </g>
            </g>
        </g>
    </g>
</svg>