<?xml version="1.0" encoding="UTF-8"?>
<svg width="46px" height="58px" viewBox="0 0 46 58" version="1.1" xmlns="http://www.w3.org/2000/svg" xmlns:xlink="http://www.w3.org/1999/xlink">
    <title>medal</title>
    <g id="Page-1" stroke="none" stroke-width="1" fill="none" fill-rule="evenodd">
        <g id="umang-copy" transform="translate(-786.000000, -923.000000)" fill-rule="nonzero">
            <g id="Group-3-Copy" transform="translate(718.000000, 923.000000)">
                <g id="medal" transform="translate(68.000000, 0.000000)">
                    <polygon id="Shape" fill="#F1543F" points="15.601094 12.556701 30.9291807 12.556701 44.4031138 0 29.0749089 0"></polygon>
                    <path d="M33.6023564,19.7319588 L12.0008416,19.7319588 L12.0008416,10.1649485 L33.6023564,10.1649485 L33.6023564,19.7319588 L33.6023564,19.7319588 Z M14.4555512,17.2470426 L31.1475294,17.2470426 L31.1475294,12.6499835 L14.4555512,12.6499835 L14.4555512,17.2470426 Z" id="Shape" fill="#F8B64C"></path>
                    <polygon id="Shape" fill="#FF7058" points="30.602146 12.556701 15.3395705 12.556701 1.80012624 0 17.1857994 0"></polygon>
                    <ellipse id="Oval" fill="#FFD15C" cx="22.801599" cy="35.5773196" rx="22.801599" ry="22.4226804"></ellipse>
                    <path d="M22.501578,53.2164948 C13.0959534,53.2164948 5.40037871,45.5479032 5.40037871,36.1752577 C5.40037871,26.8026123 13.0959534,19.1340206 22.501578,19.1340206 C31.9072025,19.1340206 39.6027772,26.8026123 39.6027772,36.1752577 C39.6027772,45.5479032 31.9072025,53.2164948 22.501578,53.2164948 Z" id="Shape" fill="#F8B64C"></path>
                    <polygon id="Shape" fill="#FFD15C" points="22.8016578 20.3298969 26.3674783 31.0358536 37.802651 31.0358536 28.4577584 37.7270329 32.0235789 48.4329897 22.8016578 41.7418104 13.5796191 48.4329897 17.1454396 37.7270329 7.80054702 31.0358536 19.2357197 31.0358536"></polygon>
                </g>
            </g>
        </g>
    </g>
</svg>