<?xml version="1.0" encoding="UTF-8"?>
<svg width="65px" height="64px" viewBox="0 0 65 64" version="1.1" xmlns="http://www.w3.org/2000/svg" xmlns:xlink="http://www.w3.org/1999/xlink">
    <title>mortarboard (1)</title>
    <g id="Page-1" stroke="none" stroke-width="1" fill="none" fill-rule="evenodd">
        <g id="umang-copy" transform="translate(-515.000000, -923.000000)" fill-rule="nonzero">
            <g id="Group-4-Copy-2" transform="translate(447.000000, 923.000000)">
                <g id="mortarboard-(1)" transform="translate(68.000000, 0.000000)">
                    <path d="M57.5714286,48.2857143 C54.4884476,48.2857143 52,50.8763825 52,53.9338843 L52,61.3010626 C52,62.3325903 52.817019,63.1428571 53.8571429,63.1428571 L61.2857143,63.1428571 C62.3258381,63.1428571 63.1428571,62.3325903 63.1428571,61.3010626 L63.1428571,53.9338843 C63.1428571,50.8763825 60.6544095,48.2857143 57.5714286,48.2857143 Z" id="Shape" fill="#FEA832"></path>
                    <path d="M63.1428571,53.9338843 L63.1428571,61.3010626 C63.1428571,62.3325903 62.3258381,63.1428571 61.2857143,63.1428571 L57.5714286,63.1428571 L57.5714286,48.2857143 C60.6544095,48.2857143 63.1428571,50.8763825 63.1428571,53.9338843 Z" id="Shape" fill="#FE9923"></path>
                    <path d="M59.4285714,18.5714286 L59.4285714,42.7142857 C59.4285714,43.7544095 58.6115524,44.5714286 57.5714286,44.5714286 C56.5313048,44.5714286 55.7142857,43.7544095 55.7142857,42.7142857 L55.7142857,18.5714286 C55.7142857,17.5313048 56.5313048,16.7142857 57.5714286,16.7142857 C58.6115524,16.7142857 59.4285714,17.5313048 59.4285714,18.5714286 Z" id="Shape" fill="#FEA832"></path>
                    <path d="M59.4285714,18.5714286 L59.4285714,42.7142857 C59.4285714,43.7544095 59.0200619,44.5714286 58.5,44.5714286 L58.5,16.7142857 C59.0200619,16.7142857 59.4285714,17.5313048 59.4285714,18.5714286 Z" id="Shape" fill="#FE9923"></path>
                    <path d="M63.1428571,16.2754859 C63.1428571,16.9576202 62.7358817,17.5679509 62.1067963,17.8910672 L47.3076892,25.0714286 L15.835168,25.0714286 L1.03606083,17.8910672 C0.406975446,17.5679509 0,16.9576202 0,16.2754859 C0,15.5933515 0.406975446,14.9830208 1.03606083,14.6599045 L30.757601,0.179509035 C31.0163387,0.0719232867 31.2753231,0 31.5714286,0 C31.867534,0 32.1265184,0.0719232867 32.3852561,0.179509035 L62.1067963,14.6599045 C62.7358817,14.9830208 63.1428571,15.5933515 63.1428571,16.2754859 Z" id="Shape" fill="#1689FC"></path>
                    <path d="M57.5714286,40.8571429 C54.4884476,40.8571429 52,43.3455905 52,46.4285714 C52,49.5115524 54.4884476,52 57.5714286,52 C60.6544095,52 63.1428571,49.5115524 63.1428571,46.4285714 C63.1428571,43.3455905 60.6544095,40.8571429 57.5714286,40.8571429 Z" id="Shape" fill="#FEDB41"></path>
                    <path d="M65,16.2754859 C65,16.9576202 64.5930246,17.5679509 63.9639392,17.8910672 L49.164832,25.0714286 L33.4285714,25.0714286 L33.4285714,0 C33.7246769,0 33.9836613,0.0719232867 34.242399,0.179509035 L63.9639392,14.6599045 C64.5930246,14.9830208 65,15.5933515 65,16.2754859 Z" id="Shape" fill="#136EF1"></path>
                    <path d="M48.2857143,16.7142857 L48.2857143,35.2857143 L13.9285714,35.2857143 L13.9285714,16.7142857 C13.9285714,11.4028571 28.2650998,11.1428571 31.1071429,11.1428571 C33.9491859,11.1428571 48.2857143,11.4028571 48.2857143,16.7142857 Z" id="Shape" fill="#17ACE8"></path>
                    <path d="M48.2857143,16.7142857 L48.2857143,35.2857143 L31.5714286,35.2857143 L31.5714286,11.1428571 C34.3366597,11.1428571 48.2857143,11.4028571 48.2857143,16.7142857 Z" id="Shape" fill="#1689FC"></path>
                    <path d="M31.1071429,29.7142857 C28.2650998,29.7142857 13.9285714,29.9742857 13.9285714,35.2857143 C13.9285714,40.5971429 28.2650998,40.8571429 31.1071429,40.8571429 C33.9491859,40.8571429 48.2857143,40.5971429 48.2857143,35.2857143 C48.2857143,29.9742857 33.9491859,29.7142857 31.1071429,29.7142857 Z" id="Shape" fill="#787780"></path>
                    <path d="M48.2857143,35.2857143 C48.2857143,40.5971429 34.3366597,40.8571429 31.5714286,40.8571429 L31.5714286,29.7142857 C34.3366597,29.7142857 48.2857143,29.9742857 48.2857143,35.2857143 Z" id="Shape" fill="#57555C"></path>
                    <path d="M63.1428571,46.4285714 C63.1428571,49.5115524 60.6544095,52 57.5714286,52 L57.5714286,40.8571429 C60.6544095,40.8571429 63.1428571,43.3455905 63.1428571,46.4285714 Z" id="Shape" fill="#FCBF29"></path>
                </g>
            </g>
        </g>
    </g>
</svg>