<?xml version="1.0" encoding="UTF-8"?>
<svg width="65px" height="64px" viewBox="0 0 65 64" version="1.1" xmlns="http://www.w3.org/2000/svg" xmlns:xlink="http://www.w3.org/1999/xlink">
    <title>code</title>
    <g id="Page-1" stroke="none" stroke-width="1" fill="none" fill-rule="evenodd">
        <g id="code">
            <path d="M58.2106806,0 L5.78931937,0 C2.592,0 0,2.592 0,5.78931937 L0,58.2105131 C0,61.408 2.592,64 5.78931937,64 L58.2105131,64 C61.408,64 64,61.408 64,58.2105131 L64,5.78931937 C64,2.592 61.408,0 58.2106806,0 Z" id="Path" fill-rule="nonzero" transform="translate(32.000000, 32.000000) scale(-1, 1) translate(-32.000000, -32.000000) "></path>
            <g id="arrow" transform="translate(13.187500, 31.937500) scale(-1, 1) translate(-13.187500, -31.937500) translate(2.375000, 15.500000)" fill="#A6C8F2">
                <path d="M1.99082824,18.5945917 L19.2294238,20.9538041 C20.5474524,21.1341848 21.5824462,22.173076 21.7578716,23.4917732 C21.8828944,24.4315863 21.2223763,25.2948063 20.2825633,25.419829 C20.1301678,25.4401021 19.9757397,25.4398119 19.8234215,25.4189662 L2.58482596,23.0597538 C1.26679742,22.8793731 0.231803609,21.8404819 0.0563781431,20.5217846 C-0.0686446017,19.5819716 0.591873457,18.7187516 1.53168652,18.5937289 C1.68408194,18.5734558 1.83851009,18.573746 1.99082824,18.5945917 Z" id="Rectangle" transform="translate(10.907125, 22.006779) rotate(-48.000000) translate(-10.907125, -22.006779) "></path>
                <path d="M2.28341103,9.54881749 L20.01865,7.15567004 C20.939897,7.03135934 21.787489,7.67740385 21.9117997,8.59865084 C21.9320515,8.74873431 21.9319556,8.90086446 21.9115146,9.05092229 C21.7351835,10.3453689 20.7164121,11.3628569 19.4217442,11.537556 L1.68650525,13.9307035 C0.765258264,14.0550142 -0.082333706,13.4089696 -0.206644401,12.4877227 C-0.226896278,12.3376392 -0.22680039,12.185509 -0.206359332,12.0354512 C-0.0300282488,10.7410045 0.988743117,9.72351664 2.28341103,9.54881749 Z" id="Rectangle" transform="translate(10.852578, 10.543187) rotate(44.000000) translate(-10.852578, -10.543187) "></path>
            </g>
            <g id="arrow" transform="translate(42.375000, 15.625000)" fill="#A6C8F2">
                <path d="M1.99082824,18.5945917 L19.2294238,20.9538041 C20.5474524,21.1341848 21.5824462,22.173076 21.7578716,23.4917732 C21.8828944,24.4315863 21.2223763,25.2948063 20.2825633,25.419829 C20.1301678,25.4401021 19.9757397,25.4398119 19.8234215,25.4189662 L2.58482596,23.0597538 C1.26679742,22.8793731 0.231803609,21.8404819 0.0563781431,20.5217846 C-0.0686446017,19.5819716 0.591873457,18.7187516 1.53168652,18.5937289 C1.68408194,18.5734558 1.83851009,18.573746 1.99082824,18.5945917 Z" id="Rectangle" transform="translate(10.907125, 22.006779) rotate(-48.000000) translate(-10.907125, -22.006779) "></path>
                <path d="M2.28341103,9.54881749 L20.01865,7.15567004 C20.939897,7.03135934 21.787489,7.67740385 21.9117997,8.59865084 C21.9320515,8.74873431 21.9319556,8.90086446 21.9115146,9.05092229 C21.7351835,10.3453689 20.7164121,11.3628569 19.4217442,11.537556 L1.68650525,13.9307035 C0.765258264,14.0550142 -0.082333706,13.4089696 -0.206644401,12.4877227 C-0.226896278,12.3376392 -0.22680039,12.185509 -0.206359332,12.0354512 C-0.0300282488,10.7410045 0.988743117,9.72351664 2.28341103,9.54881749 Z" id="Rectangle" transform="translate(10.852578, 10.543187) rotate(44.000000) translate(-10.852578, -10.543187) "></path>
            </g>
            <path d="M9.625,29.625 L56.125,29.625 C57.4366763,29.625 58.5,30.6883237 58.5,32 C58.5,33.3116763 57.4366763,34.375 56.125,34.375 L9.625,34.375 C8.31332372,34.375 7.25,33.3116763 7.25,32 C7.25,30.6883237 8.31332372,29.625 9.625,29.625 Z" id="Rectangle" fill="#A6C8F2" transform="translate(32.875000, 32.000000) rotate(111.000000) translate(-32.875000, -32.000000) "></path>
        </g>
    </g>
</svg>