<?xml version="1.0" encoding="UTF-8"?>
<svg width="64px" height="64px" viewBox="0 0 64 64" version="1.1" xmlns="http://www.w3.org/2000/svg" xmlns:xlink="http://www.w3.org/1999/xlink">
    <title>facebook</title>
    <g id="Page-1" stroke="none" stroke-width="1" fill="none" fill-rule="evenodd">
        <g id="facebook" fill-rule="nonzero">
            <path d="M58.2106806,0 L5.78931937,0 C2.592,0 0,2.592 0,5.78931937 L0,58.2105131 C0,61.408 2.592,64 5.78931937,64 L58.2105131,64 C61.408,64 64,61.408 64,58.2105131 L64,5.78931937 C64,2.592 61.408,0 58.2106806,0 Z" id="Path" transform="translate(32.000000, 32.000000) scale(-1, 1) translate(-32.000000, -32.000000) "></path>
            <path d="M46.7949739,5.01227594 L39.119629,5 C30.4966422,5 24.9240894,10.6991043 24.9240894,19.5199796 L24.9240894,26.2146625 L17.2068733,26.2146625 C16.5400142,26.2146625 16,26.7535761 16,27.4183182 L16,37.1181507 C16,37.7828928 16.54063,38.3211926 17.2068733,38.3211926 L24.9240894,38.3211926 L24.9240894,62.7969581 C24.9240894,63.4617001 25.4641036,64 26.1309627,64 L36.1997345,64 C36.8665935,64 37.4066078,63.4610863 37.4066078,62.7969581 L37.4066078,38.3211926 L46.4298332,38.3211926 C47.0966923,38.3211926 47.6367065,37.7828928 47.6367065,37.1181507 L47.640401,27.4183182 C47.640401,27.0991438 47.5129404,26.7934729 47.2869595,26.5675957 C47.0609787,26.3417184 46.7531028,26.2146625 46.4329119,26.2146625 L37.4066078,26.2146625 L37.4066078,20.5394963 C37.4066078,17.8117828 38.0586888,16.427057 41.6232754,16.427057 L46.7937424,16.4252156 C47.4599858,16.4252156 48,15.8863019 48,15.2221737 L48,6.21531787 C48,5.55180342 47.4606015,5.01350353 46.7949739,5.01227594 Z" id="Path" fill="#A6C8F2"></path>
        </g>
    </g>
</svg>