<?xml version="1.0" encoding="UTF-8"?>
<svg width="64px" height="64px" viewBox="0 0 64 64" version="1.1" xmlns="http://www.w3.org/2000/svg" xmlns:xlink="http://www.w3.org/1999/xlink">
    <title>facebook</title>
    <g id="Page-1" stroke="none" stroke-width="1" fill="none" fill-rule="evenodd">
        <g id="facebook" fill-rule="nonzero">
            <path d="M58.2106806,0 L5.78931937,0 C2.592,0 0,2.592 0,5.78931937 L0,58.2105131 C0,61.408 2.592,64 5.78931937,64 L58.2105131,64 C61.408,64 64,61.408 64,58.2105131 L64,5.78931937 C64,2.592 61.408,0 58.2106806,0 Z" id="Path" transform="translate(32.000000, 32.000000) scale(-1, 1) translate(-32.000000, -32.000000) "></path>
            <path d="M44.9456022,6.01081947 L38.2296754,6 C30.684562,6 25.8085782,11.0229394 25.8085782,18.7972702 L25.8085782,24.6976686 L19.0560142,24.6976686 C18.4725125,24.6976686 18,25.1726434 18,25.7585177 L18,34.3075227 C18,34.893397 18.4730512,35.3678308 19.0560142,35.3678308 L25.8085782,35.3678308 L25.8085782,56.9396919 C25.8085782,57.5255662 26.2810907,58 26.8645924,58 L35.6747676,58 C36.2582694,58 36.7307818,57.5250252 36.7307818,56.9396919 L36.7307818,35.3678308 L44.626104,35.3678308 C45.2096057,35.3678308 45.6821182,34.893397 45.6821182,34.3075227 L45.6853509,25.7585177 C45.6853509,25.4772115 45.5738229,25.2078067 45.3760896,25.0087284 C45.1783563,24.8096501 44.908965,24.6976686 44.6287979,24.6976686 L36.7307818,24.6976686 L36.7307818,19.6958272 C36.7307818,17.2917408 37.3013527,16.0713045 40.420366,16.0713045 L44.9445246,16.0696816 C45.5274875,16.0696816 46,15.5947068 46,15.0093734 L46,7.07112762 C46,6.48633522 45.5280263,6.01190142 44.9456022,6.01081947 Z" id="Path" fill="#A6C8F2"></path>
        </g>
    </g>
</svg>