<?xml version="1.0" encoding="UTF-8"?>
<svg width="64px" height="64px" viewBox="0 0 64 64" version="1.1" xmlns="http://www.w3.org/2000/svg" xmlns:xlink="http://www.w3.org/1999/xlink">
    <title>github</title>
    <g id="Page-1" stroke="none" stroke-width="1" fill="none" fill-rule="evenodd">
        <g id="github" fill-rule="nonzero">
            <path d="M58.2106806,0 L5.78931937,0 C2.592,0 0,2.592 0,5.78931937 L0,58.2105131 C0,61.408 2.592,64 5.78931937,64 L58.2105131,64 C61.408,64 64,61.408 64,58.2105131 L64,5.78931937 C64,2.592 61.408,0 58.2106806,0 Z" id="Path"></path>
            <path d="M55.7665,18.901 C53.3155,14.7015 49.990875,11.37675 45.79175,8.926 C41.592,6.475125 37.007125,5.25 32.033875,5.25 C27.06125,5.25 22.474875,6.4755 18.276,8.926 C14.0765,11.376625 10.752,14.7015 8.301,18.901 C5.850375,23.100375 4.625,27.686125 4.625,32.658125 C4.625,38.630625 6.3675,44.00125 9.853375,48.771375 C13.338875,53.541875 17.841625,56.842875 23.36125,58.67475 C24.00375,58.794 24.479375,58.710125 24.788625,58.42525 C25.098,58.14 25.2525,57.78275 25.2525,57.355 C25.2525,57.283625 25.246375,56.6415 25.2345,55.427875 C25.22225,54.21425 25.2165,53.1555 25.2165,52.252125 L24.395625,52.394125 C23.87225,52.49 23.212,52.530625 22.414875,52.519125 C21.618125,52.508 20.791,52.4245 19.934625,52.26925 C19.077875,52.115375 18.281,51.7585 17.543375,51.199375 C16.806125,50.64025 16.28275,49.908375 15.973375,49.004875 L15.6165,48.183625 C15.378625,47.636875 15.004125,47.0295 14.4925,46.36375 C13.980875,45.697375 13.4635,45.245625 12.940125,45.00775 L12.69025,44.828875 C12.52375,44.71 12.36925,44.566625 12.226375,44.40025 C12.083625,44.233875 11.97675,44.067375 11.905375,43.900625 C11.833875,43.73375 11.893125,43.596875 12.08375,43.4895 C12.274375,43.382125 12.618875,43.33 13.11875,43.33 L13.83225,43.436625 C14.308125,43.532 14.89675,43.816875 15.598875,44.293 C16.300625,44.76875 16.8775,45.38725 17.329625,46.14825 C17.877125,47.124 18.53675,47.8675 19.310375,48.379125 C20.083375,48.89075 20.86275,49.146125 21.64775,49.146125 C22.43275,49.146125 23.11075,49.086625 23.682,48.96825 C24.252625,48.84925 24.788,48.670375 25.287875,48.432625 C25.502,46.837875 26.085,45.61275 27.036375,44.756375 C25.680375,44.613875 24.46125,44.39925 23.378375,44.113875 C22.296125,43.828125 21.17775,43.364375 20.024,42.721375 C18.869625,42.07925 17.912,41.281875 17.150875,40.330625 C16.389625,39.378875 15.764875,38.129375 15.2775,36.58325 C14.789875,35.0365 14.546,33.25225 14.546,31.23 C14.546,28.350625 15.486,25.900375 17.365625,23.877875 C16.485125,21.713125 16.56825,19.286375 17.61525,16.597875 C18.30525,16.3835 19.3285,16.544375 20.6845,17.0795 C22.04075,17.614875 23.03375,18.0735 23.6645,18.45375 C24.29525,18.833875 24.800625,19.156 25.181375,19.41725 C27.3945,18.798875 29.678375,18.489625 32.033625,18.489625 C34.388875,18.489625 36.67325,18.798875 38.8865,19.41725 L40.242625,18.561125 C41.17,17.989875 42.265125,17.466375 43.525375,16.9905 C44.786375,16.514875 45.750625,16.383875 46.417125,16.59825 C47.487375,19.286875 47.58275,21.7135 46.702,23.87825 C48.5815,25.90075 49.521875,28.351625 49.521875,31.230375 C49.521875,33.252625 49.277125,35.0425 48.79025,36.601125 C48.30275,38.16 47.672625,39.40825 46.899625,40.3485 C46.12575,41.288625 45.162,42.07975 44.00825,42.72175 C42.85425,43.36425 41.7355,43.828 40.65325,44.11375 C39.5705,44.3995 38.351375,44.61425 36.995375,44.757 C38.232125,45.82725 38.850625,47.516625 38.850625,49.824375 L38.850625,57.354 C38.850625,57.78175 38.999375,58.138875 39.297125,58.42425 C39.5945,58.709125 40.064125,58.793 40.706625,58.673625 C46.227,56.842 50.72975,53.540875 54.215125,48.770375 C57.700125,44.00025 59.44325,38.629625 59.44325,32.657125 C59.442,27.68575 58.216,23.100375 55.7665,18.901 Z" id="Path" fill="#A6C8F2"></path>
        </g>
    </g>
</svg>