<?xml version="1.0" encoding="UTF-8"?>
<svg width="64px" height="64px" viewBox="0 0 64 64" version="1.1" xmlns="http://www.w3.org/2000/svg" xmlns:xlink="http://www.w3.org/1999/xlink">
    <title>instagram</title>
    <g id="Page-1" stroke="none" stroke-width="1" fill="none" fill-rule="evenodd">
        <g id="instagram">
            <path d="M58.2106806,0 L5.78931937,0 C2.592,0 0,2.592 0,5.78931937 L0,58.2105131 C0,61.408 2.592,64 5.78931937,64 L58.2105131,64 C61.408,64 64,61.408 64,58.2105131 L64,5.78931937 C64,2.592 61.408,0 58.2106806,0 Z" id="Path" fill-rule="nonzero"></path>
            <g transform="translate(5.000000, 5.000000)"></g>
            <path d="M58.8627549,20.8761961 C58.7362255,18.0069593 58.2721472,16.0343848 57.607353,14.3251225 C56.9215393,12.5107825 55.8664412,10.8864063 54.484098,9.53605604 C53.1334901,8.16469026 51.4980881,7.09907976 49.7044215,6.42411062 C47.9849413,5.75944327 46.0222941,5.29545348 43.1525099,5.16894826 C40.261294,5.03172929 39.3434411,5 32.0105098,5 C24.6775784,5 23.7597255,5.03172929 20.8792255,5.15823451 C18.0094412,5.28473974 16.0364903,5.74914147 14.3273139,6.41339687 C12.5122156,7.09907976 10.8875295,8.15397652 9.53692156,9.53605604 C8.16529411,10.8864063 7.09989231,12.5214962 6.42438235,14.3148207 C5.75958818,16.0343848 5.29550985,17.9962456 5.16898049,20.8654824 C5.03173534,23.7561467 5,24.6738244 5,32.0053569 C5,39.3368893 5.03173534,40.2545671 5.15826471,43.1345176 C5.28479407,46.0037544 5.74928441,47.9763289 6.41407858,49.6855912 C7.09989231,51.4999313 8.16529411,53.1243075 9.53692156,54.4746577 C10.8875295,55.8460235 12.5229314,56.911634 14.3165981,57.5866031 C16.0364903,58.2512705 17.9987254,58.7152603 20.8689217,58.8417655 C23.7490097,58.9686826 24.6672746,59 32.000206,59 C39.3331374,59 40.2509903,58.9686826 43.1314903,58.8417655 C46.0012746,58.7152603 47.9742255,58.2512705 49.6834019,57.5866031 C53.3131864,56.1835081 56.1829706,53.3142713 57.5863334,49.6855912 C58.2507156,47.9660271 58.7152059,46.0037544 58.8417353,43.1345176 C58.9682647,40.2545671 59,39.3368893 59,32.0053569 C59,24.6738244 58.9892842,23.7561467 58.8627549,20.8761961 Z M53.9990001,42.9235383 C53.8827745,45.5607801 53.4397157,46.9848908 53.0704314,47.9342978 C52.1628823,50.2868 50.2954412,52.1538848 47.9424902,53.0612608 C46.9929019,53.4304747 45.5582158,53.8734489 42.9307745,53.9892404 C40.0820098,54.1161576 39.2276276,54.1474749 32.0212256,54.1474749 C24.8148236,54.1474749 23.9497256,54.1161576 21.1112646,53.9892404 C18.4735195,53.8734489 17.0491372,53.4304747 16.099549,53.0612608 C14.9286373,52.6285884 13.8628235,51.9429055 12.9977255,51.0462433 C12.1008922,50.1705966 11.4150785,49.1156998 10.9823235,47.9450116 C10.6130392,46.9956045 10.1699804,45.5607801 10.0541668,42.934252 C9.92722544,40.0860308 9.89590211,39.2313996 9.89590211,32.0263724 C9.89590211,24.8213452 9.92722544,23.9564123 10.0541668,21.1189048 C10.1699804,18.4816629 10.6130392,17.0575523 10.9823235,16.1081452 C11.4150785,14.937045 12.1008922,13.8718465 13.0084413,13.0065016 C13.8838431,12.1098393 14.9389411,11.4241564 16.1102647,10.9918959 C17.059853,10.6226821 18.4949511,10.1797078 21.1219804,10.0635044 C23.9707451,9.93699919 24.8255393,9.9052699 32.0315293,9.9052699 C39.2486471,9.9052699 40.1030293,9.93699919 42.9414903,10.0635044 C45.5792354,10.1797078 47.0036177,10.6226821 47.9532059,10.9918959 C49.1241176,11.4241564 50.1899314,12.1098393 51.0550294,13.0065016 C51.9518627,13.8821483 52.6376764,14.937045 53.0704314,16.1081452 C53.4397157,17.0575523 53.8827745,18.4919647 53.9990001,21.1189048 C54.1255295,23.967126 54.1572648,24.8213452 54.1572648,32.0263724 C54.1572648,39.2313996 54.1255295,40.075317 53.9990001,42.9235383 Z" id="Shape" fill="#A6C8F2" fill-rule="nonzero"></path>
            <path d="M32,18 C24.2709719,18 18,24.2705561 18,32 C18,39.7294439 24.2709719,46 32,46 C39.7294439,46 46,39.7294439 46,32 C46,24.2705561 39.7294439,18 32,18 Z M32,41.081452 C26.9858008,41.081452 22.918548,37.014615 22.918548,32 C22.918548,26.985385 26.9858008,22.918548 32,22.918548 C37.014615,22.918548 41.081452,26.985385 41.081452,32 C41.081452,37.014615 37.014615,41.081452 32,41.081452 L32,41.081452 Z" id="Shape" fill="#A6C8F2" fill-rule="nonzero"></path>
            <path d="M49,18 C49,19.6566993 47.6567848,21 45.9998092,21 C44.3432152,21 43,19.6566993 43,18 C43,16.342919 44.3432152,15 45.9998092,15 C47.6567848,15 49,16.342919 49,18 L49,18 Z" id="Path" fill="#A6C8F2" fill-rule="nonzero"></path>
        </g>
    </g>
</svg>