<?xml version="1.0" encoding="UTF-8"?>
<svg width="64px" height="64px" viewBox="0 0 64 64" version="1.1" xmlns="http://www.w3.org/2000/svg" xmlns:xlink="http://www.w3.org/1999/xlink">
    <title>linkedin 2</title>
    <g id="Page-1" stroke="none" stroke-width="1" fill="none" fill-rule="evenodd">
        <g id="linkedin-2" fill-rule="nonzero">
            <g id="linkedin">
                <path d="M58.2106806,0 L5.78931937,0 C2.592,0 0,2.592 0,5.78931937 L0,58.2105131 C0,61.408 2.592,64 5.78931937,64 L58.2105131,64 C61.408,64 64,61.408 64,58.2105131 L64,5.78931937 C64,2.592 61.408,0 58.2106806,0 Z" id="Path"></path>
                <path d="M19.8043141,55.261822 C19.8043141,56.1923351 19.0500524,56.9465969 18.1195393,56.9465969 L10.9478534,56.9465969 C10.0173403,56.9465969 9.26307853,56.1923351 9.26307853,55.261822 L9.26307853,25.1984084 C9.26307853,24.2678953 10.0173403,23.5136335 10.9478534,23.5136335 L18.1195393,23.5136335 C19.0500524,23.5136335 19.8043141,24.2678953 19.8043141,25.1984084 L19.8043141,55.261822 Z" id="Path" fill="#A6C8F2"></path>
                <path d="M14.5336963,20.6797068 C10.7709319,20.6797068 7.7205445,17.6293194 7.7205445,13.866555 C7.7205445,10.1037906 10.7709319,7.05340314 14.5336963,7.05340314 C18.2964607,7.05340314 21.3468482,10.1037906 21.3468482,13.866555 C21.3468482,17.6293194 18.2966283,20.6797068 14.5336963,20.6797068 Z" id="Path" fill="#A6C8F2"></path>
                <path d="M57.2833553,55.3975288 C57.2833553,56.2529843 56.5897382,56.9465969 55.7342827,56.9465969 L48.038534,56.9465969 C47.1830785,56.9465969 46.489466,56.2529843 46.489466,55.3975288 L46.489466,41.2960838 C46.489466,39.1924607 47.1065131,32.0779058 40.992,32.0779058 C36.2491309,32.0779058 35.2871204,36.9476021 35.0939476,39.1329843 L35.0939476,55.3975288 C35.0939476,56.2529843 34.4005026,56.9465969 33.5448796,56.9465969 L26.1017801,56.9465969 C25.2463246,56.9465969 24.552712,56.2529843 24.552712,55.3975288 L24.552712,25.0627016 C24.552712,24.2072461 25.2463246,23.5136335 26.1017801,23.5136335 L33.5448796,23.5136335 C34.4003351,23.5136335 35.0939476,24.2072461 35.0939476,25.0627016 L35.0939476,27.6855288 C36.8526073,25.0462827 39.4662199,23.0091728 45.0310366,23.0091728 C57.3538848,23.0091728 57.2833553,34.521801 57.2833553,40.8474136 L57.2833553,55.3975288 L57.2833553,55.3975288 Z" id="Path" fill="#A6C8F2"></path>
            </g>
        </g>
    </g>
</svg>