<?xml version="1.0" encoding="UTF-8"?>
<svg width="64px" height="64px" viewBox="0 0 64 64" version="1.1" xmlns="http://www.w3.org/2000/svg" xmlns:xlink="http://www.w3.org/1999/xlink">
    <title>stack-overflow</title>
    <g id="Page-1" stroke="none" stroke-width="1" fill="none" fill-rule="evenodd">
        <g id="stack-overflow" fill-rule="nonzero">
            <path d="M58.2106806,0 L5.78931937,0 C2.592,0 0,2.592 0,5.78931937 L0,58.2105131 C0,61.408 2.592,64 5.78931937,64 L58.2105131,64 C61.408,64 64,61.408 64,58.2105131 L64,5.78931937 C64,2.592 61.408,0 58.2106806,0 Z" id="Path" transform="translate(32.000000, 32.000000) scale(-1, 1) translate(-32.000000, -32.000000) "></path>
            <path d="M42.2812431,36.875 C43.4915597,36.875 44.6848295,36.875 45.875,36.875 C45.875,44.2088489 45.875,51.5396046 45.875,58.875 C34.1964523,58.875 22.5411501,58.875 10.875,58.875 C10.875,51.538058 10.875,44.2150351 10.875,36.875 C12.0667202,36.875 13.2584403,36.875 14.4672072,36.875 C14.4672072,43.0164411 14.4672072,49.151696 14.4672072,55.3101494 C23.7375194,55.3101494 32.9923345,55.3101494 42.2781437,55.3101494 C42.2812431,49.1594288 42.2812431,43.0257206 42.2812431,36.875 Z M32.125,12.2928704 C36.0957045,18.1201529 40.057146,23.9304418 44.023219,29.75 C45.2768007,28.8925923 46.5103127,28.0506334 47.75,27.2055847 C43.7731202,21.3721227 39.8147663,15.5664684 35.851781,9.75 C34.6043746,10.5996833 33.375494,11.4385524 32.125,12.2928704 Z M43.25,30.3608162 C37.1676843,26.7744849 31.1131841,23.2036054 25.0463214,19.625 C24.2752148,20.9306656 23.518016,22.2131537 22.75,23.5141838 C28.8168627,27.0912441 34.8759988,30.6636688 40.9567692,34.25 C41.7278758,32.9412441 42.4881652,31.6556656 43.25,30.3608162 Z M49.3562021,5.25 C47.8541667,5.50998283 46.3832615,5.7653231 44.875,6.02375841 C46.0890805,12.9860366 47.3062739,19.9220069 48.5172414,26.875 C50.0301724,26.6150172 51.5088602,26.3581294 53,26.1012416 C51.784363,19.1312258 50.5718391,12.193708 49.3562021,5.25 Z M40.625,35.5038443 C33.7975193,33.6630315 26.9963577,31.8361643 20.176618,30 C19.7833799,31.4596344 19.3947863,32.9053232 19,34.3727052 C25.8259325,36.210419 32.6332868,38.0388357 39.4499302,39.875 C39.8478129,38.4060686 40.2348582,36.9603797 40.625,35.5038443 Z M38.625,47.25 C31.5730189,47.25 24.5411509,47.25 17.5,47.25 C17.5,48.7665232 17.5,50.2582616 17.5,51.75 C24.5535283,51.75 31.5853962,51.75 38.625,51.75 C38.625,50.2350258 38.625,48.7401893 38.625,47.25 Z M39.125,41.4574928 C32.0868071,40.8049952 25.0733801,40.1493756 18.0444744,39.5 C17.9036177,41.0250961 17.7643089,42.5252161 17.625,44.0425072 C24.6631929,44.6950048 31.6781677,45.3475024 38.7070734,46 C38.8479302,44.4733429 38.9841433,42.9732229 39.125,41.4574928 Z" id="Shape" fill="#A6C8F2"></path>
        </g>
    </g>
</svg>