<?xml version="1.0" encoding="UTF-8"?>
<svg width="64px" height="64px" viewBox="0 0 64 64" version="1.1" xmlns="http://www.w3.org/2000/svg" xmlns:xlink="http://www.w3.org/1999/xlink">
    <title>telegram</title>
    <defs>
        <linearGradient x1="50%" y1="0%" x2="50%" y2="99.258%" id="linearGradient-1">
            <stop stop-color="#2AABEE" offset="0%"></stop>
            <stop stop-color="#229ED9" offset="100%"></stop>
        </linearGradient>
    </defs>
    <g id="Page-1" stroke="none" stroke-width="1" fill="none" fill-rule="evenodd">
        <g id="telegram" fill-rule="nonzero">
            <path d="M58.2106806,0 L5.78931937,0 C2.592,0 0,2.592 0,5.78931937 L0,58.2105131 C0,61.408 2.592,64 5.78931937,64 L58.2105131,64 C61.408,64 64,61.408 64,58.2105131 L64,5.78931937 C64,2.592 61.408,0 58.2106806,0 Z" id="Path" transform="translate(32.000000, 32.000000) scale(-1, 1) translate(-32.000000, -32.000000) "></path>
            <g id="t_logo" transform="translate(5.000000, 5.000000)">
                <circle id="Oval" fill="url(#linearGradient-1)" cx="27" cy="27" r="27"></circle>
                <path d="M12.0623436,26.3319412 C20.1153908,22.9450116 25.4853502,20.7121403 28.1722219,19.6333273 C35.8437865,16.5530969 37.4378719,16.018028 38.4768744,16 C38.7053934,15.9964737 39.2163447,16.0511439 39.5473175,16.3103934 C39.8267844,16.5292987 39.9036769,16.8250086 39.9404724,17.0325548 C39.977268,17.240101 40.0230872,17.7128966 39.9866644,18.0823253 C39.5709396,22.2989256 37.7721052,32.5315026 36.8569603,37.2541672 C36.4697282,39.2525036 35.7072561,39.9225356 34.9690949,39.9881071 C33.3648997,40.1306091 32.1467467,38.9647026 30.5930051,37.9815203 C28.1617064,36.4430342 26.7881773,35.4853219 24.4281809,33.9840436 C21.7007967,32.2490569 23.4688463,31.295478 25.0231747,29.7370633 C25.4299498,29.3292187 32.4980707,23.1231327 32.6348744,22.5601434 C32.651984,22.4897322 32.6678625,22.2272725 32.5063392,22.0886842 C32.3448159,21.9500958 32.1064215,21.9974876 31.9343894,22.0351787 C31.6905391,22.0886048 27.8065079,24.5667914 20.2822958,29.4697386 C19.1798264,30.2005298 18.1812439,30.5565958 17.2865483,30.5379366 C16.3002181,30.5173664 14.4029146,29.9995875 12.9924644,29.5570029 C11.2624899,29.014155 9.88754057,28.7271473 10.0072678,27.8052235 C10.0696291,27.3250285 10.7546543,26.8339345 12.0623436,26.3319412 Z" id="Path" fill="#FFFFFF"></path>
            </g>
        </g>
    </g>
</svg>