<?xml version="1.0" encoding="UTF-8"?>
<svg width="64px" height="64px" viewBox="0 0 64 64" version="1.1" xmlns="http://www.w3.org/2000/svg" xmlns:xlink="http://www.w3.org/1999/xlink">
    <title>twitter</title>
    <g id="Page-1" stroke="none" stroke-width="1" fill="none" fill-rule="evenodd">
        <g id="twitter" fill-rule="nonzero">
            <path d="M58.2106806,0 L5.78931937,0 C2.592,0 0,2.592 0,5.78931937 L0,58.2105131 C0,61.408 2.592,64 5.78931937,64 L58.2105131,64 C61.408,64 64,61.408 64,58.2105131 L64,5.78931937 C64,2.592 61.408,0 58.2106806,0 Z" id="Path" transform="translate(32.000000, 32.000000) scale(-1, 1) translate(-32.000000, -32.000000) "></path>
            <path d="M41.4174932,9.01021088 L41.4174932,9 L44.0432822,9 L45.0027051,9.19400666 C45.6423372,9.31995782 46.2230406,9.48501665 46.7448151,9.68923418 C47.2666402,9.89345172 47.7715996,10.1317225 48.2596934,10.4039956 C48.7478377,10.6762686 49.1905356,10.9536981 49.5877872,11.236182 C49.9816555,11.5152963 50.3351271,11.8114118 50.648202,12.1245283 C50.9578431,12.4410655 51.4409378,12.5227525 52.097385,12.3695893 C52.7538323,12.2164262 53.4607755,12.0036826 54.2182146,11.7314095 C54.9756537,11.4591365 55.7247106,11.1528102 56.465284,10.8124306 C57.205908,10.4720511 57.6570388,10.2559378 57.8186258,10.16404 C57.9768296,10.0687725 58.0610063,10.0177181 58.0711055,10.0108768 L58.0811542,9.99556049 L58.1316501,9.9700333 L58.1821461,9.9445061 L58.232642,9.91897891 L58.283138,9.89345172 L58.2932372,9.87813541 L58.3083859,9.86792453 L58.3235852,9.85771365 L58.3336339,9.84239734 L58.3841298,9.82708102 L58.4346258,9.81687014 L58.4245771,9.89345172 L58.4093778,9.9700333 L58.3841298,10.0466149 L58.3588819,10.1231964 L58.3336339,10.1742508 L58.3083859,10.2253052 L58.283138,10.3018868 C58.2663228,10.3529412 58.2495077,10.4209967 58.232642,10.5061043 C58.2158269,10.591212 58.0559062,10.9315405 57.7529306,11.527192 C57.4499549,12.1228435 57.0712353,12.72697 56.6167719,13.3396226 C56.1623084,13.9522752 55.7550081,14.4151343 55.3948206,14.7283019 C55.0312498,15.0448391 54.7905356,15.2660577 54.6726781,15.3920089 C54.5548711,15.5213296 54.4118161,15.6404395 54.2434626,15.7493896 L53.9909829,15.917869 L53.9404869,15.9433962 L53.889991,15.9689234 L53.8799423,15.9842397 L53.864743,15.9944506 L53.8495942,16.0046615 L53.839495,16.0199778 L53.7889991,16.045505 L53.7385032,16.0710322 L53.7284545,16.0863485 L53.7132552,16.0965594 L53.6981064,16.1067703 L53.6880072,16.1220866 L53.6779585,16.1374029 L53.6627592,16.1476138 L53.6476105,16.1578246 L53.6375113,16.173141 L53.889991,16.173141 L55.3038774,15.8668147 C56.2464851,15.6625971 57.1469793,15.4158513 58.0054103,15.1265261 L59.3688007,14.6670366 L59.5202885,14.6159822 L59.5960325,14.590455 L59.6465284,14.5649279 L59.6970243,14.5394007 L59.7475203,14.5138735 L59.7980162,14.4883463 L59.8990081,14.47303 L60,14.4628191 L60,14.5649279 L59.974752,14.5751387 L59.9495041,14.590455 L59.9394554,14.6057714 L59.9242561,14.6159822 L59.9091073,14.6261931 L59.8990081,14.6415094 L59.8889594,14.6568257 L59.8737601,14.6670366 L59.8586114,14.6772475 L59.8485122,14.6925638 L59.8384635,14.7078801 L59.8232642,14.718091 L59.7980162,14.7691454 L59.7727683,14.8201998 L59.7576195,14.8304107 C59.7509035,14.8406215 59.5371542,15.1298957 59.116321,15.6983352 C58.6955383,16.2701443 58.4683066,16.5594184 58.4346258,16.5662597 C58.4009955,16.5764706 58.3538323,16.627525 58.2932372,16.7194229 C58.2360252,16.8146903 57.8791704,17.1942286 57.2227232,17.8579356 C56.5662759,18.5216426 55.9233616,19.1121376 55.2938287,19.6295228 C54.660963,20.1502775 54.3411217,20.7901421 54.3344058,21.5491676 C54.3243066,22.3047725 54.2855762,23.1591165 54.2182146,24.1120977 C54.1509035,25.0651299 54.0246637,26.0946926 53.839495,27.2008879 C53.6543769,28.3070832 53.3682164,29.5579156 52.981064,30.9533851 C52.5939621,32.3488546 52.122633,33.7103219 51.5671776,35.0377358 C51.0117223,36.3651498 50.4310189,37.5564018 49.8250676,38.6115427 C49.2191163,39.6666837 48.663661,40.5601354 48.1587015,41.2918979 C47.6537421,42.0236604 47.1404004,42.7128946 46.6185753,43.3596004 C46.0968007,44.0063063 45.4370207,44.7346992 44.6391849,45.5447281 C43.8379657,46.3513873 43.4003679,46.7938757 43.3262904,46.8721421 C43.2488801,46.9470388 42.9189901,47.2261532 42.3365194,47.709434 C41.7575329,48.1961354 41.134716,48.6828368 40.4681695,49.1695893 C39.8050063,49.6529212 39.1956718,50.0562508 38.6402164,50.3795782 C38.084761,50.7029057 37.4148819,51.072182 36.6304779,51.4874584 C35.8495077,51.9061043 35.0045086,52.2941176 34.0955816,52.6514983 C33.1866546,53.008879 32.2272317,53.3407325 31.2173129,53.6470588 C30.207394,53.9533851 29.231156,54.1916559 28.2885482,54.3618202 C27.345991,54.5319845 26.2771434,54.6766726 25.0820559,54.7957825 L23.28945,54.9744728 L23.28945,55 L20.0072137,55 L20.0072137,54.9744728 L19.5779982,54.9489456 C19.2918882,54.9319445 19.0562236,54.9148923 18.871055,54.8978912 C18.6859369,54.8808901 17.987376,54.7872564 16.7754734,54.6170921 C15.5635708,54.4469279 14.6125807,54.2767125 13.9224527,54.1065483 C13.2323751,53.936384 12.2055906,53.6130055 10.8422002,53.136515 C9.47880974,52.6600244 8.31235347,52.1783774 7.34283138,51.6916759 C6.37669252,51.2083441 5.77074121,50.9020178 5.52497746,50.772697 C5.28259693,50.6467458 5.00991885,50.4902131 4.70694319,50.3029967 L4.25247971,50.0221976 L4.24243102,50.0068812 L4.22723174,49.9966704 L4.21208296,49.9864595 L4.20198377,49.9711432 L4.15148783,49.945616 L4.10099188,49.9200888 L4.09094319,49.9047725 L4.07574391,49.8945616 L4.06059513,49.8843507 L4.05049594,49.8690344 L4.04044725,49.8537181 L4.02524797,49.8435072 L4,49.8435072 L4,49.7413984 L4.05049594,49.7516093 L4.10099188,49.7669256 L4.32822362,49.7924528 C4.47971145,49.8094539 4.89211181,49.8349811 5.56537421,49.8690344 C6.23868711,49.9030877 6.95401262,49.9030877 7.71145176,49.8690344 C8.46889089,49.8349811 9.24319567,49.7583996 10.0342651,49.6392897 C10.825385,49.5201798 11.75956,49.3159623 12.8367899,49.0266371 C13.9140703,48.7373119 14.9037908,48.3935627 15.8060018,47.9953385 C16.7048296,47.5937447 17.3444112,47.2942087 17.7248476,47.0967814 C18.1018503,46.9027747 18.6775041,46.5419734 19.4517583,46.0144284 L20.613165,45.2230855 L20.6232642,45.2077691 L20.638413,45.1975583 L20.6536123,45.1873474 L20.663661,45.1720311 L20.6737601,45.1567148 L20.6889089,45.1465039 L20.7041082,45.136293 L20.7141569,45.1209767 L20.7646528,45.1056604 L20.8151488,45.0954495 L20.825248,45.0443951 L20.8403968,44.9933407 L20.855596,44.9831299 L20.8656447,44.9678135 L20.4616772,44.9422863 C20.1923823,44.9252852 19.9314698,44.9082331 19.6789901,44.891232 C19.4265104,44.8742309 19.0309757,44.7976493 18.4923354,44.6614872 C17.9537457,44.5253252 17.3730424,44.3211077 16.7502254,44.0488346 C16.127459,43.7765616 15.5215077,43.4531831 14.9323715,43.0788013 C14.3432858,42.7044195 13.9174031,42.3929367 13.6548242,42.1445061 C13.3956285,41.899394 13.058972,41.5522752 12.6449053,41.1029967 C12.2342218,40.6503485 11.877367,40.1857026 11.5743913,39.709212 C11.2714157,39.2327214 10.9819225,38.6829678 10.7059116,38.0601554 L10.2867448,37.1309656 L10.2614968,37.054384 L10.2362489,36.9778024 L10.2211001,36.9267481 L10.2110009,36.8756937 L10.2867448,36.8859046 L10.3624887,36.9012209 L10.9179441,36.9778024 C11.2882813,37.0288568 11.8689847,37.0458579 12.6600541,37.0288568 C13.451174,37.0118557 13.9981966,36.9778024 14.3011722,36.9267481 C14.6041479,36.8756937 14.7893165,36.8416404 14.8566276,36.8246393 L14.9576195,36.7991121 L15.0838593,36.7735849 L15.2100992,36.7480577 L15.2201984,36.7327414 L15.2353472,36.7225305 L15.2505464,36.7123196 L15.2605951,36.6970033 L15.1596032,36.6714761 L15.0586114,36.6459489 L14.9576195,36.6204218 L14.8566276,36.5948946 L14.7556357,36.5693674 C14.6883246,36.5523663 14.5705176,36.518313 14.4021641,36.4672586 C14.2338611,36.4162042 13.7793977,36.2289878 13.0387737,35.9056604 C12.2982002,35.582333 11.709064,35.2674806 11.2714157,34.9611543 C10.8326825,34.65394 10.4143514,34.3179618 10.0191163,33.9553829 C9.62524797,33.5877913 9.19269973,33.1146704 8.7213706,32.536071 C8.25009197,31.9574717 7.82930929,31.2852386 7.45897205,30.5194229 C7.0886853,29.7536071 6.81095762,29.0218446 6.625789,28.3240844 C6.44136498,27.6304285 6.31969086,26.9212579 6.26226871,26.2053274 L6.17132552,25.1331853 L6.22182146,25.1433962 L6.2723174,25.1587125 L6.32281335,25.1842397 L6.37330929,25.2097669 L6.42380523,25.2352941 L6.47430117,25.2608213 L7.25698828,25.618202 C7.77881335,25.8564728 8.42682777,26.0606903 9.20108206,26.2308546 C9.97538683,26.4010189 10.4382326,26.4946526 10.5897205,26.5116537 L10.8169522,26.5371809 L11.2714157,26.5371809 L11.261367,26.5218646 L11.2461677,26.5116537 L11.2310189,26.5014428 L11.2209197,26.4861265 L11.2108711,26.4708102 L11.1956718,26.4605993 L11.180523,26.4503885 L11.1704238,26.4350721 L11.1199279,26.409545 L11.0694319,26.3840178 L11.0593832,26.3687014 L11.0441839,26.3584906 L11.0290352,26.3482797 L11.018936,26.3329634 L10.96844,26.3074362 L10.9179441,26.281909 L10.9078954,26.2665927 C10.8977962,26.2597514 10.7530243,26.1508524 10.4735798,25.9398446 C10.1975185,25.7254162 9.90802525,25.4480377 9.60504959,25.1076582 C9.30207394,24.7672786 8.99909829,24.4098979 8.69612263,24.0355161 C8.39258915,23.6602765 8.12223872,23.258808 7.88818756,22.8357381 C7.65257349,22.4103019 7.40342651,21.8690744 7.14084761,21.2122087 C6.88165194,20.5587125 6.68471776,19.900111 6.55004509,19.236404 C6.4154229,18.572697 6.33967899,17.9175161 6.32281335,17.2708102 C6.3059982,16.6241043 6.32281335,16.0710322 6.37330929,15.6115427 C6.42380523,15.1520533 6.52479711,14.6329834 6.67628494,14.054384 C6.82777277,13.4757847 7.04662218,12.8631321 7.33273219,12.2164262 L7.7619477,11.2463929 L7.78719567,11.1698113 L7.81244364,11.0932297 L7.82764292,11.0830189 L7.83769161,11.0677026 L7.8477908,11.0523862 L7.86293959,11.0421754 L7.87813886,11.0523862 L7.88818756,11.0677026 L7.89828674,11.0830189 L7.91343553,11.0932297 L7.92863481,11.1034406 L7.9386835,11.1187569 L7.94878269,11.1340733 L7.96393147,11.1442841 L7.98917944,11.1953385 L8.01442741,11.2463929 L8.02962669,11.2566038 L8.03967538,11.2719201 L8.7213706,12.0377358 C9.17583408,12.5482797 9.7144743,13.118404 10.3372408,13.7480577 C10.9600577,14.3777114 11.3050965,14.7044595 11.3724076,14.7283019 C11.4397692,14.7555139 11.5238954,14.8337802 11.6248873,14.9631521 C11.7258792,15.0891032 12.0625356,15.3903241 12.6348061,15.8668147 C13.2071271,16.3433052 13.9561335,16.8964284 14.8818756,17.5260821 C15.8076682,18.1557358 16.8344022,18.7769145 17.962128,19.3895671 C19.0899044,20.0022198 20.301807,20.5552919 21.5978359,21.0488346 C22.8939152,21.5423774 23.8028422,21.8657048 24.3246168,22.0188679 C24.8464418,22.1720311 25.7385032,22.3677225 27.0009017,22.6059933 C28.2633003,22.8442642 29.2143408,22.9974273 29.8539225,23.0654828 C30.4935546,23.1335383 30.9312029,23.172697 31.166817,23.1829079 L31.5202885,23.1931188 L31.5102399,23.1165372 L31.4950406,23.0399556 L31.3940487,22.4017758 C31.3267376,21.9763396 31.2930568,21.3806881 31.2930568,20.6148724 C31.2930568,19.8490566 31.3519856,19.1428213 31.4697926,18.4961154 C31.5876501,17.8494095 31.7643859,17.1942286 32,16.5305216 C32.2356646,15.8668147 32.4662795,15.3341132 32.6917944,14.9325194 C32.920743,14.5342952 33.2203354,14.0799112 33.5906222,13.5693674 C33.9609594,13.0588235 34.4406709,12.5312786 35.0297565,11.9866815 C35.6188927,11.4420844 36.2921551,10.9570677 37.0495942,10.5316315 C37.8070334,10.1061953 38.5055942,9.78281687 39.1451758,9.56159822 C39.7848079,9.34037958 40.3234482,9.19569145 40.761046,9.12763596 C41.1986943,9.05958047 41.4174932,9.02042175 41.4174932,9.01021088 Z" id="Path" fill="#A6C8F2"></path>
        </g>
    </g>
</svg>