<?xml version="1.0" encoding="UTF-8"?>
<svg width="64px" height="64px" viewBox="0 0 64 64" version="1.1" xmlns="http://www.w3.org/2000/svg" xmlns:xlink="http://www.w3.org/1999/xlink">
    <title>whatsapp</title>
    <g id="Page-1" stroke="none" stroke-width="1" fill="none" fill-rule="evenodd">
        <g id="whatsapp" fill-rule="nonzero">
            <path d="M58.2106806,0 L5.78931937,0 C2.592,0 0,2.592 0,5.78931937 L0,58.2105131 C0,61.408 2.592,64 5.78931937,64 L58.2105131,64 C61.408,64 64,61.408 64,58.2105131 L64,5.78931937 C64,2.592 61.408,0 58.2106806,0 Z" id="Path"></path>
            <g id="what" transform="translate(6.000000, 6.000000)">
                <path d="M13.157864,44.484375 L14.0042317,44.90625 C17.5307636,47.015625 21.4804795,48 25.4301953,48 L25.4301953,48 C37.8435879,48 48,37.875 48,25.5 C48,19.59375 45.6019582,13.828125 41.3701199,9.609375 C37.1382815,5.390625 31.4958303,3 25.4301953,3 C13.0168027,3 2.86039057,13.125 3.00145185,25.640625 C3.00145185,29.859375 4.27100337,33.9375 6.38692256,37.453125 L6.95116768,38.296875 L4.69418721,46.59375 L13.157864,44.484375 Z" id="Path" fill="#00E676"></path>
                <path d="M44.4904632,7.58918919 C39.6730245,2.67027027 33.013624,0 26.2125341,0 C11.760218,0 0.141689373,11.6648649 0.283378747,25.8594595 C0.283378747,30.3567568 1.55858311,34.7135135 3.68392371,38.6486486 L0,52 L13.7438692,48.4864865 C17.5694823,50.5945946 21.8201635,51.5783784 26.0708447,51.5783784 L26.0708447,51.5783784 C40.3814714,51.5783784 52,39.9135135 52,25.7189189 C52,18.8324324 49.3079019,12.3675676 44.4904632,7.58918919 Z M26.2125341,47.2216216 L26.2125341,47.2216216 C22.386921,47.2216216 18.5613079,46.2378378 15.3024523,44.2702703 L14.4523161,43.8486486 L6.23433243,45.9567568 L8.35967302,37.9459459 L7.79291553,37.1027027 C1.55858311,27.1243243 4.53405995,13.9135135 14.7356948,7.72972973 C24.9373297,1.54594595 38.1144414,4.4972973 44.3487738,14.6162162 C50.5831063,24.7351351 47.6076294,37.8054054 37.4059946,43.9891892 C34.147139,46.0972973 30.1798365,47.2216216 26.2125341,47.2216216 Z M38.6811989,31.6216216 L37.1226158,30.9189189 C37.1226158,30.9189189 34.8555858,29.9351351 33.4386921,29.2324324 C33.2970027,29.2324324 33.1553134,29.0918919 33.013624,29.0918919 C32.5885559,29.0918919 32.3051771,29.2324324 32.0217984,29.372973 L32.0217984,29.372973 C32.0217984,29.372973 31.880109,29.5135135 29.8964578,31.7621622 C29.7547684,32.0432432 29.4713896,32.1837838 29.1880109,32.1837838 L29.0463215,32.1837838 C28.9046322,32.1837838 28.6212534,32.0432432 28.479564,31.9027027 L27.7711172,31.6216216 L27.7711172,31.6216216 C26.2125341,30.9189189 24.7956403,30.0756757 23.6621253,28.9513514 C23.3787466,28.6702703 22.9536785,28.3891892 22.6702997,28.1081081 C21.6784741,27.1243243 20.6866485,26 19.9782016,24.7351351 L19.8365123,24.4540541 C19.6948229,24.3135135 19.6948229,24.172973 19.5531335,23.8918919 C19.5531335,23.6108108 19.5531335,23.3297297 19.6948229,23.1891892 C19.6948229,23.1891892 20.2615804,22.4864865 20.6866485,22.0648649 C20.9700272,21.7837838 21.1117166,21.3621622 21.3950954,21.0810811 C21.6784741,20.6594595 21.8201635,20.0972973 21.6784741,19.6756757 C21.5367847,18.972973 19.8365123,15.1783784 19.4114441,14.3351351 C19.1280654,13.9135135 18.8446866,13.772973 18.4196185,13.6324324 L17.9945504,13.6324324 C17.7111717,13.6324324 17.2861035,13.6324324 16.8610354,13.6324324 C16.5776567,13.6324324 16.2942779,13.772973 16.0108992,13.772973 L15.8692098,13.9135135 C15.5858311,14.0540541 15.3024523,14.3351351 15.0190736,14.4756757 C14.7356948,14.7567568 14.5940054,15.0378378 14.3106267,15.3189189 C13.3188011,16.5837838 12.7520436,18.1297297 12.7520436,19.6756757 L12.7520436,19.6756757 C12.7520436,20.8 13.0354223,21.9243243 13.4604905,22.9081081 L13.6021798,23.3297297 C14.8773842,26 16.5776567,28.3891892 18.8446866,30.4972973 L19.4114441,31.0594595 C19.8365123,31.4810811 20.2615804,31.7621622 20.5449591,32.1837838 C23.520436,34.7135135 26.9209809,36.5405405 30.746594,37.5243243 C31.1716621,37.6648649 31.7384196,37.6648649 32.1634877,37.8054054 L32.1634877,37.8054054 C32.5885559,37.8054054 33.1553134,37.8054054 33.5803815,37.8054054 C34.2888283,37.8054054 35.1389646,37.5243243 35.7057221,37.2432432 C36.1307902,36.9621622 36.4141689,36.9621622 36.6975477,36.6810811 L36.9809264,36.4 C37.2643052,36.1189189 37.5476839,35.9783784 37.8310627,35.6972973 C38.1144414,35.4162162 38.3978202,35.1351351 38.5395095,34.8540541 C38.8228883,34.2918919 38.9645777,33.5891892 39.106267,32.8864865 C39.106267,32.6054054 39.106267,32.1837838 39.106267,31.9027027 C39.106267,31.9027027 38.9645777,31.7621622 38.6811989,31.6216216 Z" id="Shape" fill="#FFFFFF"></path>
            </g>
        </g>
    </g>
</svg>