<svg width="64" height="64" viewBox="0 0 64 64" fill="none" xmlns="http://www.w3.org/2000/svg">
<path d="M32 19.255C32 18.634 32 18.3235 32.1206 18.1797C32.2251 18.0549 32.3819 17.9887 32.5425 18.0016C32.7273 18.0164 32.9428 18.236 33.3736 18.6751L45.3538 30.8853C45.6526 31.1898 45.8019 31.342 45.8578 31.5176C45.9071 31.672 45.9071 31.8383 45.8578 31.9928C45.8019 32.1684 45.6526 32.3204 45.3538 32.625L33.3736 44.8352C32.9428 45.2742 32.7273 45.4938 32.5425 45.5087C32.3819 45.5215 32.2251 45.4554 32.1206 45.3305C32 45.1869 32 44.8762 32 44.2552V19.255Z" fill="black"/>
<path fill-rule="evenodd" clip-rule="evenodd" d="M36.8258 7.95831C34.2576 5.34723 30.094 5.34723 27.5259 7.95831L8.92607 26.8695C6.35798 29.4806 6.35798 33.7141 8.92607 36.325L27.5259 55.2363C30.094 57.8474 34.2576 57.8474 36.8258 55.2363L55.4257 36.325C57.9936 33.7141 57.9936 29.4806 55.4257 26.8695L36.8258 7.95831ZM34.5501 14.8094C33.2662 13.5039 31.1842 13.5039 29.9002 14.8094L15.9503 28.9928C14.6663 30.2984 14.6663 32.415 15.9503 33.7205L29.9002 47.9039C31.1842 49.2094 33.2662 49.2094 34.5501 47.9039L48.5001 33.7205C49.784 32.415 49.784 30.2984 48.5001 28.9928L34.5501 14.8094Z" fill="black"/>
</svg>
