<?xml version="1.0" encoding="UTF-8"?>
<svg width="64px" height="64px" viewBox="0 0 64 64" version="1.1" xmlns="http://www.w3.org/2000/svg" xmlns:xlink="http://www.w3.org/1999/xlink">
    <title>React</title>
    <g id="Page-1" stroke="none" stroke-width="1" fill="none" fill-rule="evenodd">
        <g id="React" fill-rule="nonzero">
            <path d="M58.2106806,0 L5.78931937,0 C2.592,0 0,2.592 0,5.78931937 L0,58.2105131 C0,61.408 2.592,64 5.78931937,64 L58.2105131,64 C61.408,64 64,61.408 64,58.2105131 L64,5.78931937 C64,2.592 61.408,0 58.2106806,0 Z" id="Path" transform="translate(32.000000, 32.000000) scale(-1, 1) translate(-32.000000, -32.000000) "></path>
            <g id="React-icon" opacity="0.487327939" transform="translate(5.000000, 7.000000)" fill="#61DAFB">
                <path d="M55,24.5056077 C55,20.8606088 50.4372197,17.4062715 43.441704,15.2641337 C45.0560538,8.13115129 44.338565,2.45616846 41.17713,0.639276722 C40.4484305,0.213092241 39.5964126,0.0112153811 38.6659193,0.0112153811 L38.6659193,2.51224537 C39.1816143,2.51224537 39.5964126,2.61318379 39.9439462,2.80384527 C41.4686099,3.678645 42.1300448,7.00961318 41.6143498,11.2938888 C41.4910314,12.3481346 41.2892377,13.4584573 41.0426009,14.5912108 C38.8452915,14.0528725 36.4461883,13.6379034 33.9237668,13.3687343 C32.4103139,11.2938888 30.8408072,9.40970474 29.2600897,7.76104372 C32.9147982,4.36278325 36.3452915,2.50102998 38.67713,2.50102998 L38.67713,0 C38.67713,0 38.67713,0 38.67713,0 C35.5941704,0 31.558296,2.19821469 27.4775785,6.01144427 C23.396861,2.22064546 19.3609865,0.0448615244 16.2780269,0.0448615244 L16.2780269,2.54589151 C18.5986547,2.54589151 22.0403587,4.39642939 25.6950673,7.7722591 C24.1255605,9.42092012 22.5560538,11.2938888 21.0650224,13.3687343 C18.5313901,13.6379034 16.132287,14.0528725 13.9349776,14.6024262 C13.67713,13.4808881 13.4865471,12.3929961 13.3520179,11.3499657 C12.8251121,7.06569009 13.4753363,3.7347219 14.9887892,2.8487068 C15.3251121,2.64682994 15.7623318,2.55710689 16.2780269,2.55710689 L16.2780269,0.0560769055 C16.2780269,0.0560769055 16.2780269,0.0560769055 16.2780269,0.0560769055 C15.3363229,0.0560769055 14.4843049,0.257953765 13.7443946,0.684138247 C10.5941704,2.50102998 9.88789238,8.16479744 11.5134529,15.2753491 C4.54035874,17.4287022 0,20.8718242 0,24.5056077 C0,28.1506065 4.56278027,31.6049439 11.558296,33.7470817 C9.94394619,40.8800641 10.661435,46.5550469 13.82287,48.3719387 C14.5515695,48.7981231 15.4035874,49 16.3452915,49 C19.4282511,49 23.4641256,46.8017853 27.544843,42.9885557 C31.6255605,46.7793545 35.661435,48.9551385 38.7443946,48.9551385 C39.6860987,48.9551385 40.5381166,48.7532616 41.2780269,48.3270771 C44.4282511,46.5101854 45.1345291,40.8464179 43.5089686,33.7358663 C50.4596413,31.5937285 55,28.1393912 55,24.5056077 Z M40.4035874,17.0249485 C39.9887892,18.4717327 39.4730942,19.9633783 38.8901345,21.455024 C38.4304933,20.5577935 37.9484305,19.6605631 37.4215247,18.7633326 C36.9058296,17.8661021 36.3565022,16.9913024 35.8071749,16.1389334 C37.3991031,16.3744564 38.9349776,16.6660563 40.4035874,17.0249485 Z M35.2690583,28.9693294 C34.3946188,30.4834058 33.4977578,31.9189746 32.5672646,33.2536049 C30.896861,33.3994049 29.2040359,33.4779126 27.5,33.4779126 C25.8071749,33.4779126 24.1143498,33.3994049 22.455157,33.2648203 C21.5246637,31.93019 20.6165919,30.5058366 19.7421525,29.0029755 C18.8901345,27.5337606 18.1165919,26.0421149 17.4103139,24.5392538 C18.1053812,23.0363928 18.8901345,21.5335317 19.7309417,20.0643168 C20.6053812,18.5502403 21.5022422,17.1146715 22.4327354,15.7800412 C24.103139,15.6342412 25.7959641,15.5557336 27.5,15.5557336 C29.1928251,15.5557336 30.8856502,15.6342412 32.544843,15.7688258 C33.4753363,17.1034562 34.3834081,18.5278096 35.2578475,20.0306706 C36.1098655,21.4998856 36.8834081,22.9915312 37.5896861,24.4943923 C36.8834081,25.9972534 36.1098655,27.5001144 35.2690583,28.9693294 Z M38.8901345,27.5113298 C39.4955157,29.0141909 40.0112108,30.517052 40.4372197,31.9750515 C38.9686099,32.3339437 37.4215247,32.636759 35.8183857,32.872282 C36.367713,32.0086976 36.9170404,31.1226825 37.4327354,30.2142367 C37.9484305,29.3170062 38.4304933,28.4085603 38.8901345,27.5113298 Z M27.5224215,39.4781415 C26.4798206,38.4014649 25.4372197,37.2014191 24.4058296,35.8892195 C25.4147982,35.934081 26.4461883,35.9677272 27.4887892,35.9677272 C28.5426009,35.9677272 29.5852018,35.9452964 30.6053812,35.8892195 C29.5964126,37.2014191 28.5538117,38.4014649 27.5224215,39.4781415 Z M19.1816143,32.872282 C17.5896861,32.636759 16.0538117,32.3451591 14.5852018,31.9862669 C15,30.5394827 15.5156951,29.047837 16.0986547,27.5561913 C16.558296,28.4534218 17.0403587,29.3506523 17.5672646,30.2478828 C18.0941704,31.1451133 18.632287,32.019913 19.1816143,32.872282 Z M27.4663677,9.53307393 C28.5089686,10.6097505 29.5515695,11.8097963 30.5829596,13.1219959 C29.573991,13.0771344 28.5426009,13.0434882 27.5,13.0434882 C26.4461883,13.0434882 25.4035874,13.065919 24.3834081,13.1219959 C25.3923767,11.8097963 26.4349776,10.6097505 27.4663677,9.53307393 Z M19.1704036,16.1389334 C18.6210762,17.0025177 18.0717489,17.8885328 17.5560538,18.7969787 C17.0403587,19.6942092 16.558296,20.5914397 16.0986547,21.4886702 C15.4932735,19.9858091 14.9775785,18.482948 14.5515695,17.0249485 C16.0201794,16.6772717 17.5672646,16.3744564 19.1704036,16.1389334 Z M9.02466368,30.1805905 C5.05605381,28.487068 2.48878924,26.2664225 2.48878924,24.5056077 C2.48878924,22.7447929 5.05605381,20.512932 9.02466368,18.8306249 C9.98878924,18.4156558 11.0426009,18.0455482 12.1300448,17.6978714 C12.7690583,19.8960861 13.6098655,22.1840238 14.6524664,24.5280385 C13.6210762,26.8608377 12.7914798,29.1375601 12.1636771,31.3245594 C11.0538117,30.9768826 10,30.5955596 9.02466368,30.1805905 Z M15.0560538,46.2073701 C13.5313901,45.3325704 12.8699552,42.0016022 13.3856502,37.7173266 C13.5089686,36.6630808 13.7107623,35.5527581 13.9573991,34.4200046 C16.1547085,34.9583429 18.5538117,35.373312 21.0762332,35.6424811 C22.5896861,37.7173266 24.1591928,39.6015106 25.7399103,41.2501717 C22.0852018,44.6484321 18.6547085,46.5101854 16.32287,46.5101854 C15.8183857,46.49897 15.3923767,46.3980316 15.0560538,46.2073701 Z M41.6479821,37.6612497 C42.1748879,41.9455253 41.5246637,45.2764935 40.0112108,46.1625086 C39.6748879,46.3643854 39.2376682,46.4541085 38.7219731,46.4541085 C36.4013453,46.4541085 32.9596413,44.6035706 29.3049327,41.2277409 C30.8744395,39.5790799 32.4439462,37.7061112 33.9349776,35.6312657 C36.4686099,35.3620966 38.867713,34.9471275 41.0650224,34.3975738 C41.32287,35.5303273 41.5246637,36.6182193 41.6479821,37.6612497 Z M45.9641256,30.1805905 C45,30.5955596 43.9461883,30.9656672 42.8587444,31.313344 C42.2197309,29.1151293 41.3789238,26.8271916 40.3363229,24.4831769 C41.367713,22.1503777 42.1973094,19.8736553 42.8251121,17.686656 C43.9349776,18.0343328 44.9887892,18.4156558 45.9753363,18.8306249 C49.9439462,20.5241474 52.5112108,22.7447929 52.5112108,24.5056077 C52.5,26.2664225 49.9327354,28.4982834 45.9641256,30.1805905 Z" id="Shape"></path>
                <circle id="Oval" cx="28" cy="25" r="5"></circle>
            </g>
        </g>
    </g>
</svg>