<svg width="64" height="64" viewBox="0 0 64 64" fill="none" xmlns="http://www.w3.org/2000/svg">
<g clip-path="url(#clip0)">
<path d="M42.0305 41.7814C43.9494 41.5809 45.4052 39.9121 45.339 37.9092C45.273 35.9066 43.6185 34.3043 41.6334 34.3043H41.5012C39.4496 34.3711 37.8616 36.1068 37.9278 38.1762C37.994 39.1777 38.3909 40.0455 38.9865 40.6463C36.7367 45.1193 33.2957 48.3904 28.1343 51.1275C24.6272 52.9967 20.9878 53.6643 17.3484 53.1971C14.3706 52.7965 12.0545 51.4615 10.5985 49.2582C8.48117 45.9871 8.28272 42.4488 10.0694 38.9107C11.3267 36.3738 13.3117 34.5045 14.569 33.5699C14.3044 32.702 13.9072 31.2334 13.7088 30.1654C4.11378 37.175 5.10645 46.6547 8.01804 51.1275C10.2016 54.4656 14.6352 56.535 19.532 56.535C20.8553 56.535 22.1787 56.4014 23.5023 56.0678C31.9724 54.3988 38.3911 49.325 42.0305 41.7814V41.7814ZM53.6769 33.5033C48.6477 27.5617 41.2365 24.2906 32.7664 24.2906H31.7077C31.1121 23.0889 29.8548 22.2877 28.4652 22.2877H28.3328C26.2816 22.3545 24.6936 24.0902 24.7596 26.1598C24.8258 28.1625 26.4801 29.7648 28.4652 29.7648H28.5975C30.0532 29.698 31.3106 28.7633 31.8399 27.4949H33.0311C38.0602 27.4949 42.8245 28.9635 47.1259 31.8342C50.4344 34.0373 52.8167 36.908 54.14 40.3793C55.2649 43.1832 55.1987 45.9203 54.0076 48.257C52.1549 51.7951 49.0448 53.7311 44.9421 53.7311C42.2952 53.7311 39.7807 52.9299 38.4571 52.3291C37.7293 52.9967 36.4058 54.0648 35.4793 54.7326C38.3249 56.0676 41.2365 56.802 44.0157 56.802C50.3682 56.802 55.0665 53.2637 56.8532 49.7256C58.7721 45.8535 58.6396 39.1777 53.6769 33.5033V33.5033ZM20.0613 42.916C20.1275 44.9189 21.7818 46.5209 23.7669 46.5209H23.8994C25.9507 46.4543 27.5388 44.7184 27.4725 42.649C27.4065 40.6461 25.7521 39.0441 23.7669 39.0441H23.6347C23.5023 39.0441 23.3036 39.0441 23.1716 39.1107C20.4584 34.5711 19.3335 29.6311 19.7306 24.2904C19.9951 20.2848 21.3187 16.8133 23.6347 13.9426C25.5536 11.4725 29.2592 10.2709 31.7739 10.2043C38.788 10.0707 41.7656 18.8828 41.9643 22.4211C42.8245 22.6213 44.2803 23.0887 45.273 23.4225C44.4788 12.6078 37.8616 7 31.5092 7C25.5536 7 20.0613 11.3393 17.8775 17.7482C14.8337 26.2932 16.8188 34.5045 20.5244 40.9801C20.1938 41.4473 19.9951 42.1818 20.0613 42.9162V42.916Z" fill="#764ABC"/>
</g>
<defs>
<clipPath id="clip0">
<rect width="52" height="50" fill="white" transform="translate(6 7)"/>
</clipPath>
</defs>
</svg>
